<svg width="16" height="9" viewBox="0 0 16 9" fill="none" xmlns="http://www.w3.org/2000/svg">
<path id="Vector" d="M7.99992 8.93346C7.82214 8.93346 7.65548 8.90547 7.49992 8.84946C7.34437 8.79435 7.19992 8.70013 7.06659 8.5668L0.899921 2.40013C0.655476 2.15569 0.539032 1.84991 0.550587 1.4828C0.561254 1.11658 0.688809 0.811243 0.933253 0.566798C1.1777 0.322354 1.48881 0.200131 1.86659 0.200131C2.24436 0.200131 2.55548 0.322354 2.79992 0.566798L7.99992 5.7668L13.2333 0.533464C13.4777 0.28902 13.7835 0.172131 14.1506 0.182798C14.5168 0.194353 14.8221 0.322354 15.0666 0.566798C15.311 0.811243 15.4333 1.12235 15.4333 1.50013C15.4333 1.87791 15.311 2.18902 15.0666 2.43346L8.93325 8.5668C8.79992 8.70013 8.65548 8.79435 8.49992 8.84946C8.34437 8.90547 8.1777 8.93346 7.99992 8.93346Z" fill="black"/>
</svg>
