<svg width="18" height="18" viewBox="0 0 18 18" fill="none" xmlns="http://www.w3.org/2000/svg">
<g id="Group">
<path id="Vector" d="M4.07242 7.813L2.01442 9.871C1.17043 10.715 0.696289 11.8597 0.696289 13.0532C0.696289 14.2468 1.17043 15.3915 2.01442 16.2355C2.85841 17.0795 4.00309 17.5536 5.19667 17.5536C6.39025 17.5536 7.53493 17.0795 8.37892 16.2355L11.1209 13.492C11.6299 12.983 12.0093 12.3593 12.2273 11.6733C12.4453 10.9873 12.4956 10.259 12.374 9.5496C12.2523 8.84016 11.9622 8.17025 11.5281 7.59611C11.0939 7.02197 10.5284 6.56035 9.87892 6.25L8.99992 7.129C8.91068 7.2184 8.83307 7.31869 8.76892 7.4275C9.27071 7.57175 9.72617 7.84447 10.0903 8.21869C10.4544 8.5929 10.7145 9.05566 10.8449 9.56122C10.9754 10.0668 10.9716 10.5976 10.834 11.1013C10.6964 11.6049 10.4298 12.064 10.0604 12.433L7.31992 15.175C6.757 15.7379 5.99351 16.0542 5.19742 16.0542C4.40133 16.0542 3.63784 15.7379 3.07492 15.175C2.512 14.6121 2.19575 13.8486 2.19575 13.0525C2.19575 12.2564 2.512 11.4929 3.07492 10.93L4.26442 9.742C4.09659 9.11309 4.03175 8.46115 4.07242 7.8115V7.813Z" fill="#323546"/>
<path id="Vector_2" d="M6.87883 5.00801C6.36989 5.51702 5.99048 6.1407 5.77244 6.82669C5.55441 7.51267 5.50412 8.24096 5.62579 8.95041C5.74746 9.65985 6.03754 10.3298 6.47168 10.9039C6.90583 11.478 7.47137 11.9397 8.12083 12.25L9.28333 11.086C8.77475 10.9496 8.31103 10.6817 7.93878 10.3093C7.56653 9.9369 7.29885 9.47307 7.16265 8.96444C7.02644 8.4558 7.02651 7.92028 7.16285 7.41168C7.29918 6.90308 7.56698 6.43932 7.93933 6.06701L10.6798 3.32501C11.2428 2.76208 12.0062 2.44584 12.8023 2.44584C13.5984 2.44584 14.3619 2.76208 14.9248 3.32501C15.4878 3.88793 15.804 4.65142 15.804 5.44751C15.804 6.2436 15.4878 7.00708 14.9248 7.57001L13.7353 8.75801C13.9033 9.38801 13.9678 10.0405 13.9273 10.6885L15.9853 8.63051C16.8293 7.78652 17.3035 6.64183 17.3035 5.44826C17.3035 4.25468 16.8293 3.10999 15.9853 2.26601C15.1413 1.42202 13.9967 0.947876 12.8031 0.947876C11.6095 0.947876 10.4648 1.42202 9.62083 2.26601L6.87883 5.00801Z" fill="#323546"/>
</g>
</svg>
