<svg width="16" height="16" viewBox="0 0 16 16" fill="none" xmlns="http://www.w3.org/2000/svg">
<g id="akar-icons:copy">
<g id="Group">
<path id="Vector" d="M5.66666 2.66671V10.6667C5.66666 11.0203 5.80713 11.3595 6.05718 11.6095C6.30723 11.8596 6.64637 12 6.99999 12H12.3333C12.6869 12 13.0261 11.8596 13.2761 11.6095C13.5262 11.3595 13.6667 11.0203 13.6667 10.6667V4.82804C13.6666 4.65041 13.6311 4.47458 13.5622 4.31087C13.4933 4.14716 13.3923 3.99887 13.2653 3.87471L11.0553 1.71337C10.8062 1.46981 10.4717 1.33342 10.1233 1.33337H6.99999C6.64637 1.33337 6.30723 1.47385 6.05718 1.7239C5.80713 1.97395 5.66666 2.31309 5.66666 2.66671V2.66671Z" stroke="#494D66" stroke-width="1.4" stroke-linecap="round" stroke-linejoin="round"/>
<path id="Vector_2" d="M10.6667 12.0001V13.3334C10.6667 13.687 10.5262 14.0262 10.2761 14.2762C10.0261 14.5263 9.68695 14.6667 9.33332 14.6667H3.99999C3.64637 14.6667 3.30723 14.5263 3.05718 14.2762C2.80713 14.0262 2.66666 13.687 2.66666 13.3334V6.00008C2.66666 5.64646 2.80713 5.30732 3.05718 5.05727C3.30723 4.80722 3.64637 4.66675 3.99999 4.66675H5.33332" stroke="#494D66" stroke-width="1.4" stroke-linecap="round" stroke-linejoin="round"/>
</g>
</g>
</svg>
