<svg width="12" height="16" viewBox="0 0 12 16" fill="none" xmlns="http://www.w3.org/2000/svg">
<path id="Vector" d="M11.6937 7.84372L6.19368 0.843719C6.17023 0.814967 6.14068 0.791794 6.10717 0.77588C6.07366 0.759966 6.03703 0.751709 5.99993 0.751709C5.96283 0.751709 5.9262 0.759966 5.89269 0.77588C5.85917 0.791794 5.82962 0.814967 5.80618 0.843719L0.306179 7.84372C0.269568 7.88755 0.249512 7.94285 0.249512 7.99997C0.249512 8.05708 0.269568 8.11238 0.306179 8.15622L5.80618 15.1562C5.82962 15.185 5.85917 15.2081 5.89269 15.2241C5.9262 15.24 5.96283 15.2482 5.99993 15.2482C6.03703 15.2482 6.07366 15.24 6.10717 15.2241C6.14068 15.2081 6.17023 15.185 6.19368 15.1562L11.6937 8.15622C11.7303 8.11238 11.7503 8.05708 11.7503 7.99997C11.7503 7.94285 11.7303 7.88755 11.6937 7.84372ZM6.24993 1.72497L11.1062 7.90622L6.24993 10.1125V1.72497ZM5.74993 10.1125L0.893679 7.90622L5.74993 1.72497V10.1125ZM5.74993 10.6625V14.275L1.33118 8.64997L5.74993 10.6625ZM6.24993 10.6625L10.6687 8.64997L6.24993 14.275V10.6625Z" fill="#494D66"/>
</svg>
