<svg width="17" height="17" viewBox="0 0 17 17" fill="none" xmlns="http://www.w3.org/2000/svg">
<path id="Vector" d="M10.2533 7.99991L16.7333 1.51991C16.879 1.34986 16.955 1.13113 16.9464 0.907415C16.9378 0.683703 16.845 0.47149 16.6867 0.313184C16.5284 0.154878 16.3162 0.0621375 16.0925 0.0534965C15.8688 0.0448555 15.65 0.12095 15.48 0.266574L9 6.74657L2.52 0.257685C2.34995 0.112061 2.13122 0.0359672 1.9075 0.0446082C1.68379 0.0532493 1.47158 0.145989 1.31327 0.304295C1.15497 0.462601 1.06223 0.674814 1.05358 0.898526C1.04494 1.12224 1.12104 1.34097 1.26666 1.51102L7.74666 7.99991L1.25777 14.4799C1.16472 14.5596 1.08915 14.6577 1.03579 14.7679C0.982441 14.8782 0.952458 14.9983 0.94773 15.1207C0.943001 15.2432 0.963629 15.3652 1.00832 15.4793C1.05301 15.5934 1.12079 15.697 1.20742 15.7836C1.29404 15.8702 1.39764 15.938 1.51171 15.9827C1.62577 16.0274 1.74785 16.048 1.87027 16.0433C1.99268 16.0386 2.1128 16.0086 2.22308 15.9552C2.33336 15.9019 2.43142 15.8263 2.51111 15.7332L9 9.25324L15.48 15.7332C15.65 15.8789 15.8688 15.955 16.0925 15.9463C16.3162 15.9377 16.5284 15.8449 16.6867 15.6866C16.845 15.5283 16.9378 15.3161 16.9464 15.0924C16.955 14.8687 16.879 14.65 16.7333 14.4799L10.2533 7.99991Z" fill="#C8C9CC"/>
</svg>
