<svg width="138" height="24" viewBox="0 0 138 24" fill="none" xmlns="http://www.w3.org/2000/svg">
<g id="Group 91">
<g id="ArraySwap">
<path d="M34.2563 18.4616L39.323 3.44621H42.5845L47.4666 18.4616H44.4102L43.3435 15.1385H38.4204L37.3333 18.4616H34.2563ZM39.1794 12.5949H42.6666L40.9845 7.22057L39.1794 12.5949Z" fill="white"/>
<path d="M48.6847 18.4616V7.56928H51.1052L51.5565 8.94364C52.5821 7.95903 53.6214 7.46672 54.6744 7.46672C55.2625 7.46672 55.6659 7.50774 55.8847 7.5898V10.359C55.5018 10.318 54.9753 10.2975 54.3052 10.2975C53.6625 10.2975 53.1223 10.3864 52.6847 10.5642C52.2608 10.7283 51.8847 11.0428 51.5565 11.5077V18.4616H48.6847Z" fill="white"/>
<path d="M57.2384 18.4616V7.56928H59.6589L60.1102 8.94364C61.1358 7.95903 62.1751 7.46672 63.2281 7.46672C63.8162 7.46672 64.2196 7.50774 64.4384 7.5898V10.359C64.0555 10.318 63.529 10.2975 62.8589 10.2975C62.2162 10.2975 61.676 10.3864 61.2384 10.5642C60.8144 10.7283 60.4384 11.0428 60.1102 11.5077V18.4616H57.2384Z" fill="white"/>
<path d="M65.4844 15.6924V14.6667C65.4844 14.2428 65.5391 13.8599 65.6485 13.518C65.7715 13.1761 65.9562 12.8616 66.2023 12.5744C66.4485 12.2872 66.7767 12.0684 67.1869 11.918C67.6109 11.7539 68.11 11.6718 68.6844 11.6718C69.2177 11.6718 69.7442 11.6787 70.2638 11.6924C70.7972 11.6924 71.3374 11.6855 71.8844 11.6718C71.898 11.2206 71.898 10.9881 71.8844 10.9744C71.8844 10.6872 71.8502 10.4548 71.7818 10.277C71.7271 10.0992 71.6314 9.96244 71.4946 9.86672C71.3579 9.77099 71.2074 9.70945 71.0433 9.6821C70.8792 9.65475 70.6741 9.64108 70.428 9.64108C69.5391 9.64108 68.0143 9.71629 65.8536 9.86672V8.10262C67.0707 7.62398 68.7254 7.37783 70.8177 7.36416C72.0758 7.36416 73.0468 7.63082 73.7305 8.16415C74.4143 8.68381 74.7562 9.58638 74.7562 10.8718V18.4616H72.4792L71.8844 17.2718C71.8297 17.3676 71.6519 17.518 71.351 17.7231C71.0638 17.9146 70.6536 18.1129 70.1203 18.318C69.5869 18.5094 69.0673 18.5983 68.5613 18.5847C67.5767 18.5573 66.8177 18.2633 66.2844 17.7026C65.751 17.1282 65.4844 16.4582 65.4844 15.6924ZM68.3562 15.2821C68.3562 15.6924 68.445 15.9659 68.6228 16.1026C68.8006 16.2257 69.0536 16.2872 69.3818 16.2872C69.5459 16.2872 69.7168 16.2735 69.8946 16.2462C70.0724 16.2052 70.2365 16.1641 70.3869 16.1231C70.551 16.0684 70.7083 16.0137 70.8587 15.959C71.0091 15.8906 71.1459 15.8291 71.269 15.7744C71.3921 15.706 71.4946 15.6513 71.5767 15.6103C71.6724 15.5556 71.7476 15.5146 71.8023 15.4872C71.857 15.4462 71.8844 15.4257 71.8844 15.4257V13.4359L69.2382 13.6411C69.0604 13.6547 68.91 13.7026 68.7869 13.7847C68.6638 13.853 68.5681 13.9419 68.4997 14.0513C68.445 14.1607 68.404 14.2701 68.3767 14.3795C68.363 14.4889 68.3562 14.612 68.3562 14.7488V15.2821Z" fill="white"/>
<path d="M75.8342 7.56928H78.8496L80.7368 15.2C80.7641 15.3094 80.7983 15.412 80.8393 15.5077C80.894 15.6035 80.9556 15.6787 81.0239 15.7334C81.0923 15.7881 81.1539 15.8359 81.2086 15.877C81.2633 15.9043 81.3248 15.9317 81.3932 15.959C81.4752 15.9727 81.5368 15.9795 81.5778 15.9795C81.6188 15.9795 81.6667 15.9864 81.7214 16C81.7897 16 81.8239 16 81.8239 16L83.9983 7.56928H86.9932L83.2188 21.9077L81.7214 24H79.6701L81.2086 18.4616C79.5402 18.4616 78.4598 17.5385 77.9675 15.6924L75.8342 7.56928Z" fill="white"/>
<path d="M88.3701 8.49236V7.20005C88.3701 6.62569 88.4385 6.11287 88.5752 5.66159C88.712 5.21031 88.8966 4.84108 89.1291 4.5539C89.3615 4.26672 89.6487 4.03424 89.9906 3.85647C90.3462 3.66501 90.7154 3.5351 91.0983 3.46672C91.4949 3.38467 91.9393 3.33681 92.4316 3.32313C93.4709 3.29578 94.5444 3.34365 95.6521 3.46672C96.7598 3.5898 97.6214 3.74023 98.2367 3.918V6.17441C96.6778 6.03766 95.0026 5.96928 93.2111 5.96928C92.4863 5.95561 91.9735 6.03766 91.6726 6.21544C91.3855 6.37954 91.2419 6.78296 91.2419 7.42569V8.16415C91.2419 8.73851 91.3581 9.12142 91.5906 9.31287C91.8231 9.50432 92.2402 9.60005 92.8419 9.60005H95.2214C95.5769 9.60005 95.9051 9.63424 96.206 9.70261C96.5205 9.77099 96.7872 9.86672 97.006 9.98979C97.2385 10.1129 97.4436 10.2565 97.6214 10.4206C97.8128 10.5847 97.9701 10.7693 98.0932 10.9744C98.2299 11.1795 98.3393 11.3915 98.4214 11.6103C98.5171 11.8154 98.5855 12.0342 98.6265 12.2667C98.6812 12.4992 98.7154 12.7248 98.7291 12.9436C98.7564 13.1488 98.7701 13.3607 98.7701 13.5795V14.5847C98.7701 15.2411 98.688 15.8154 98.5239 16.3077C98.3598 16.8 98.1479 17.1898 97.888 17.477C97.6419 17.7641 97.3273 17.9966 96.9444 18.1744C96.5752 18.3522 96.206 18.4684 95.8367 18.5231C95.4675 18.5915 95.0641 18.6257 94.6265 18.6257C92.1513 18.6257 90.2162 18.4206 88.8214 18.0103V15.7539C90.3256 15.9043 92.0692 15.9795 94.0521 15.9795C94.312 15.9795 94.5308 15.9659 94.7085 15.9385C94.9 15.9112 95.0914 15.8565 95.2829 15.7744C95.488 15.6924 95.6385 15.5624 95.7342 15.3847C95.8436 15.1932 95.8983 14.9607 95.8983 14.6872V13.8872C95.8983 13.4086 95.8026 13.053 95.6111 12.8206C95.4197 12.5881 95.0641 12.4718 94.5444 12.4718H92.247C89.6624 12.4582 88.3701 11.1317 88.3701 8.49236Z" fill="white"/>
<path d="M99.772 7.56928H102.849L105.023 15.0975L106.972 7.56928H109.844L109.085 10.5026L110.89 15.0975L113.044 7.56928H116.121L112.593 18.4616H109.393L107.751 14.5231L106.521 18.4616H103.259L99.772 7.56928Z" fill="white"/>
<path d="M117.027 15.6924V14.6667C117.027 14.2428 117.081 13.8599 117.191 13.518C117.314 13.1761 117.499 12.8616 117.745 12.5744C117.991 12.2872 118.319 12.0684 118.729 11.918C119.153 11.7539 119.652 11.6718 120.227 11.6718C120.76 11.6718 121.287 11.6787 121.806 11.6924C122.34 11.6924 122.88 11.6855 123.427 11.6718C123.44 11.2206 123.44 10.9881 123.427 10.9744C123.427 10.6872 123.393 10.4548 123.324 10.277C123.27 10.0992 123.174 9.96244 123.037 9.86672C122.9 9.77099 122.75 9.70945 122.586 9.6821C122.422 9.65475 122.217 9.64108 121.97 9.64108C121.081 9.64108 119.557 9.71629 117.396 9.86672V8.10262C118.613 7.62398 120.268 7.37783 122.36 7.36416C123.618 7.36416 124.589 7.63082 125.273 8.16415C125.957 8.68381 126.299 9.58638 126.299 10.8718V18.4616H124.022L123.427 17.2718C123.372 17.3676 123.194 17.518 122.893 17.7231C122.606 17.9146 122.196 18.1129 121.663 18.318C121.129 18.5094 120.61 18.5983 120.104 18.5847C119.119 18.5573 118.36 18.2633 117.827 17.7026C117.293 17.1282 117.027 16.4582 117.027 15.6924ZM119.899 15.2821C119.899 15.6924 119.987 15.9659 120.165 16.1026C120.343 16.2257 120.596 16.2872 120.924 16.2872C121.088 16.2872 121.259 16.2735 121.437 16.2462C121.615 16.2052 121.779 16.1641 121.929 16.1231C122.093 16.0684 122.251 16.0137 122.401 15.959C122.552 15.8906 122.688 15.8291 122.811 15.7744C122.934 15.706 123.037 15.6513 123.119 15.6103C123.215 15.5556 123.29 15.5146 123.345 15.4872C123.399 15.4462 123.427 15.4257 123.427 15.4257V13.4359L120.781 13.6411C120.603 13.6547 120.452 13.7026 120.329 13.7847C120.206 13.853 120.111 13.9419 120.042 14.0513C119.987 14.1607 119.946 14.2701 119.919 14.3795C119.905 14.4889 119.899 14.612 119.899 14.7488V15.2821Z" fill="white"/>
<path d="M127.971 24V7.56928H130.33L130.823 8.65646C131.219 8.34193 131.718 8.06159 132.32 7.81544C132.936 7.56928 133.537 7.44621 134.125 7.44621C134.659 7.44621 135.124 7.5351 135.52 7.71287C135.93 7.89065 136.266 8.1368 136.525 8.45133C136.799 8.76586 137.024 9.15561 137.202 9.62056C137.38 10.0855 137.503 10.5915 137.571 11.1385C137.64 11.6855 137.674 12.2941 137.674 12.9642C137.674 13.5248 137.654 14.0308 137.613 14.4821C137.585 14.9334 137.524 15.3847 137.428 15.8359C137.332 16.2735 137.195 16.6565 137.018 16.9847C136.854 17.3129 136.642 17.6069 136.382 17.8667C136.136 18.1129 135.821 18.3043 135.438 18.4411C135.055 18.5641 134.618 18.6257 134.125 18.6257C133.633 18.6257 133.079 18.5641 132.464 18.4411C131.848 18.3043 131.301 18.1334 130.823 17.9282V24H127.971ZM130.823 15.959C131.534 16.2325 132.389 16.3693 133.387 16.3693C133.715 16.3693 133.975 16.2941 134.166 16.1436C134.358 15.9795 134.508 15.6513 134.618 15.159C134.741 14.6667 134.802 13.9761 134.802 13.0872C134.802 11.9112 134.686 11.0906 134.454 10.6257C134.221 10.1471 133.866 9.90774 133.387 9.90774C132.375 9.90774 131.52 10.1265 130.823 10.5642V15.959Z" fill="white"/>
</g>
<g id="Group 90">
<path id="[" d="M0 17.983V4.36251C0 3.82918 0.0547008 3.34371 0.164102 2.9061C0.273504 2.45482 0.451282 2.04456 0.697435 1.67533C0.957264 1.3061 1.31966 1.01892 1.78461 0.813797C2.24957 0.608668 2.81025 0.506104 3.46666 0.506104H5.21025V2.92662H4.14359C3.73333 2.92662 3.4188 3.07704 3.2 3.3779C2.98119 3.66508 2.87179 4.10952 2.87179 4.71123V17.8805C2.87179 19.0702 3.29572 19.6651 4.14359 19.6651H5.21025V22.0856H3.46666C2.87863 22.0856 2.36581 21.9899 1.9282 21.7984C1.50427 21.6206 1.16923 21.395 0.923076 21.1215C0.690598 20.8616 0.499145 20.5334 0.348718 20.1369C0.19829 19.754 0.102564 19.3916 0.0615383 19.0497C0.0205128 18.7215 0 18.3659 0 17.983Z" fill="white"/>
<path id="[_2" d="M29.511 17.983V4.36251C29.511 3.82918 29.4563 3.34371 29.3469 2.9061C29.2375 2.45482 29.0597 2.04456 28.8136 1.67533C28.5537 1.3061 28.1913 1.01892 27.7264 0.813797C27.2614 0.608668 26.7007 0.506104 26.0443 0.506104H24.3007V2.92662H25.3674C25.7777 2.92662 26.0922 3.07704 26.311 3.3779C26.5298 3.66508 26.6392 4.10952 26.6392 4.71123V17.8805C26.6392 19.0702 26.2153 19.6651 25.3674 19.6651H24.3007V22.0856H26.0443C26.6324 22.0856 27.1452 21.9899 27.5828 21.7984C28.0067 21.6206 28.3418 21.395 28.5879 21.1215C28.8204 20.8616 29.0118 20.5334 29.1623 20.1369C29.3127 19.754 29.4084 19.3916 29.4494 19.0497C29.4905 18.7215 29.511 18.3659 29.511 17.983Z" fill="white"/>
<g id="ic:outline-swap-horizontal-circle">
<path id="Vector" d="M15.0973 1.82324C10.0648 1.82324 5.98047 5.90757 5.98047 10.94C5.98047 15.9725 10.0648 20.0568 15.0973 20.0568C20.1297 20.0568 24.2141 15.9725 24.2141 10.94C24.2141 5.90757 20.1297 1.82324 15.0973 1.82324ZM15.0973 18.2335C11.0768 18.2335 7.80383 14.9606 7.80383 10.94C7.80383 6.91953 11.0768 3.6466 15.0973 3.6466C19.1178 3.6466 22.3907 6.91953 22.3907 10.94C22.3907 14.9606 19.1178 18.2335 15.0973 18.2335ZM17.8323 5.9258V8.205H14.1856V10.0284H17.8323V12.3076L21.0232 9.11668L17.8323 5.9258ZM12.3622 9.57252L9.17135 12.7634L12.3622 15.9543V13.6751H16.009V11.8517H12.3622V9.57252Z" fill="white"/>
</g>
</g>
</g>
</svg>
