<svg width="120" height="106" viewBox="0 0 120 106" fill="none" xmlns="http://www.w3.org/2000/svg">
<g id="Group">
<path id="Vector" d="M30.36 0.793927C29.628 1.07593 29.352 1.20193 28.686 1.60393C28.338 1.81393 27.39 2.36593 26.58 2.83993C25.77 3.31393 24.666 3.96193 24.12 4.27993C23.574 4.59793 22.47 5.24593 21.66 5.71993C20.85 6.19393 19.746 6.84193 19.2 7.15993C18.252 7.71793 17.022 8.43793 14.64 9.82993C13.452 10.5259 11.808 11.4859 9.87 12.6199C9.21 13.0099 7.548 13.9759 6.18 14.7799C4.812 15.5779 3.486 16.3579 3.228 16.5019C1.74 17.3899 0.689999 18.8299 0.191999 20.6899L0.0299988 21.2899V37.2199V53.1499L0.197999 53.7499C0.533999 54.9439 1.05 55.9099 1.866 56.8759C2.514 57.6379 3.198 58.1659 4.56 58.9519C4.872 59.1319 5.658 59.5879 6.3 59.9599C6.942 60.3319 7.782 60.8179 8.16 61.0399C8.922 61.4779 13.116 63.9139 14.91 64.9579C15.54 65.3239 16.2 65.7079 16.38 65.8099C16.56 65.9119 17.238 66.3079 17.88 66.6799C18.522 67.0519 19.362 67.5379 19.74 67.7599C20.118 67.9819 21.216 68.6119 22.17 69.1699C23.13 69.7279 24.222 70.3579 24.6 70.5799C24.978 70.8019 25.818 71.2879 26.46 71.6599C29.646 73.5139 29.814 73.5979 30.834 73.8559C32.406 74.2579 34.278 74.1079 35.892 73.4599C36.222 73.3279 37.212 72.7999 38.118 72.2719C39.69 71.3539 40.776 70.7239 45.12 68.1919C46.224 67.5499 47.7 66.6919 48.39 66.2899C52.206 64.0639 53.376 63.3919 57.9 60.7699C60.624 59.1919 63.102 57.7579 63.402 57.5779C63.708 57.4039 64.224 57.1039 64.542 56.9239C64.866 56.7379 65.7 56.2519 66.39 55.8499C67.782 55.0399 68.826 54.4339 75.57 50.5099C78.114 49.0279 80.814 47.4559 81.57 47.0179C82.332 46.5739 83.112 46.1359 83.31 46.0399C85.26 45.1099 87.762 45.1339 89.94 46.1119C90.12 46.1959 91.5 46.9759 93 47.8519C94.5 48.7279 96.906 50.1259 98.34 50.9599C103.128 53.7439 104.124 54.3319 104.43 54.5599C105.816 55.5859 106.83 57.1459 107.292 58.9759L107.424 59.5099L107.442 68.1499C107.466 77.7559 107.478 77.3719 107.064 78.6139C106.578 80.0719 105.624 81.3859 104.37 82.3339C104.142 82.5079 102.954 83.2459 101.73 83.9719C100.512 84.7039 98.754 85.7479 97.83 86.2999C96.906 86.8519 95.208 87.8599 94.05 88.5499C92.898 89.2339 91.68 89.9599 91.35 90.1579C89.562 91.2439 88.44 91.5679 86.706 91.5019C85.824 91.4719 85.338 91.3939 84.57 91.1599C83.562 90.8479 83.748 90.9499 76.29 86.6119C73.278 84.8599 72.246 84.2599 70.95 83.5099C70.224 83.0899 69.498 82.6519 69.33 82.5439C67.656 81.4339 66.492 79.6519 66.084 77.5579C65.988 77.0899 65.976 76.4119 65.946 71.6299L65.91 66.2239L60.24 69.5119C57.12 71.3239 54.456 72.8599 54.312 72.9319L54.054 73.0639L54.078 78.8899L54.096 84.7099L54.252 85.2799C54.786 87.1999 55.89 88.7539 57.492 89.8279C57.732 89.9899 58.374 90.3799 58.92 90.6919C59.466 91.0099 60.342 91.5139 60.87 91.8199C61.398 92.1319 61.98 92.4679 62.16 92.5699C62.34 92.6719 63.018 93.0679 63.66 93.4399C64.302 93.8119 65.142 94.2979 65.52 94.5199C65.898 94.7419 66.996 95.3719 67.95 95.9299C68.91 96.4879 70.002 97.1179 70.38 97.3399C70.758 97.5619 71.598 98.0479 72.24 98.4199C72.882 98.7919 73.56 99.1879 73.74 99.2899C73.92 99.3919 74.598 99.7879 75.24 100.16C75.882 100.532 76.722 101.018 77.1 101.24C77.478 101.462 78.468 102.032 79.29 102.512C80.118 102.986 81.306 103.676 81.93 104.042C84.294 105.416 83.934 105.32 86.796 105.32C89.91 105.32 89.202 105.566 93.78 102.908C94.488 102.494 96.018 101.612 97.17 100.94C98.328 100.268 99.852 99.3859 100.56 98.9719C101.268 98.5639 103.026 97.5439 104.46 96.7099C105.894 95.8759 107.91 94.7119 108.93 94.1179C109.956 93.5239 111.966 92.3539 113.4 91.5259C114.834 90.6919 116.202 89.8879 116.43 89.7319C116.976 89.3719 117.978 88.3699 118.362 87.7999C118.926 86.9599 119.298 86.0899 119.562 85.0099C119.658 84.6199 119.67 83.4739 119.688 68.8999C119.7 57.9259 119.682 53.0599 119.64 52.7119C119.442 51.1699 118.662 49.5919 117.534 48.4339C116.844 47.7319 116.34 47.3719 114.84 46.5019C114.132 46.0939 113.04 45.4639 112.41 45.0979C111.786 44.7319 110.676 44.0899 109.95 43.6699C109.224 43.2499 108.12 42.6079 107.49 42.2419C106.866 41.8759 106.038 41.4019 105.66 41.1799C105.054 40.8259 103.704 40.0459 98.4 36.9679C97.692 36.5539 96.168 35.6659 95.01 34.9999C89.988 32.0779 89.946 32.0599 88.968 31.7959C87.126 31.3039 85.026 31.5319 83.262 32.4139C82.956 32.5639 81.714 33.2839 80.49 34.0039C79.272 34.7299 77.76 35.6239 77.13 35.9899C76.506 36.3619 75.222 37.1179 74.28 37.6699C73.338 38.2219 71.826 39.1159 70.92 39.6499C70.014 40.1839 68.502 41.0779 67.56 41.6299C65.85 42.6379 65.19 43.0159 62.37 44.5699C61.548 45.0259 60.522 45.5899 60.09 45.8299C59.664 46.0699 58.512 46.7059 57.54 47.2399C56.568 47.7799 55.284 48.4879 54.69 48.8179C54.096 49.1479 49.752 51.7339 45.03 54.5599C40.314 57.3919 36.288 59.7859 36.09 59.8879C35.178 60.3379 34.122 60.5719 32.97 60.5779C32.1 60.5779 31.476 60.4999 30.72 60.2839C29.556 59.9479 29.67 60.0139 24 56.5819C23.292 56.1559 21.942 55.3399 21 54.7699C14.7 50.9659 14.946 51.1219 14.31 50.5279C13.206 49.4959 12.414 48.0799 12.048 46.4719L11.916 45.8899L11.892 37.7899C11.88 32.6599 11.898 29.4019 11.934 28.9099C12.084 26.9719 12.798 25.4119 14.172 24.0319C14.814 23.3839 15.402 22.9819 17.28 21.8899C19.146 20.8039 21.678 19.3339 23.37 18.3499C27.618 15.8779 29.13 15.0079 29.496 14.8219C31.086 14.0299 33.21 13.8859 35.07 14.4499C35.892 14.6959 36.384 14.9299 37.458 15.5779C38.022 15.9199 39.006 16.5139 39.63 16.8919C43.158 19.0279 45.348 20.3539 47.52 21.6619C50.544 23.4859 50.796 23.6599 51.39 24.2419C52.236 25.0639 52.806 25.9339 53.214 27.0199C53.688 28.2859 53.664 27.8659 53.682 34.2979C53.694 37.4659 53.73 40.0399 53.754 40.0279C53.784 40.0159 56.466 38.4679 59.724 36.5899L65.64 33.1699V27.4999C65.64 21.2899 65.64 21.2779 65.28 20.1619C64.92 19.0339 64.266 17.9839 63.378 17.0959C62.538 16.2619 62.952 16.5199 54.42 11.5099C52.686 10.4899 50.298 9.08593 49.11 8.38993C47.922 7.68793 45.534 6.28393 43.8 5.26993C42.066 4.24993 39.828 2.93593 38.826 2.34793C35.628 0.457927 36.144 0.619927 33.192 0.619927L30.81 0.625927L30.36 0.793927Z" fill="#808080"/>
</g>
</svg>
