<svg width="32" height="32" viewBox="0 0 32 32" fill="none" xmlns="http://www.w3.org/2000/svg">
<g id="ant-design:setting-outlined">
<path id="Vector" d="M28.9 19.5532L26.8531 17.8032C26.95 17.2094 27 16.6032 27 15.9969C27 15.3907 26.95 14.7844 26.8531 14.1907L28.9 12.4407C29.0544 12.3085 29.1649 12.1325 29.2168 11.936C29.2687 11.7395 29.2596 11.5318 29.1906 11.3407L29.1625 11.2594C28.599 9.68451 27.7552 8.22453 26.6719 6.95005L26.6156 6.88442C26.4842 6.7299 26.309 6.61882 26.1132 6.56582C25.9174 6.51283 25.7102 6.5204 25.5187 6.58755L22.9781 7.49067C22.0406 6.72192 20.9937 6.11567 19.8625 5.69067L19.3719 3.03442C19.3349 2.83456 19.2379 2.65068 19.0939 2.50723C18.9499 2.36378 18.7656 2.26754 18.5656 2.2313L18.4813 2.21567C16.8531 1.92192 15.1406 1.92192 13.5125 2.21567L13.4281 2.2313C13.2281 2.26754 13.0439 2.36378 12.8999 2.50723C12.7558 2.65068 12.6589 2.83456 12.6219 3.03442L12.1281 5.70317C11.0059 6.12826 9.96083 6.73419 9.03438 7.49692L6.475 6.58755C6.28364 6.51987 6.07622 6.51202 5.8803 6.56505C5.68437 6.61808 5.50922 6.72947 5.37813 6.88442L5.32188 6.95005C4.23983 8.22544 3.39618 9.68516 2.83125 11.2594L2.80313 11.3407C2.6625 11.7313 2.77813 12.1688 3.09375 12.4407L5.16563 14.2094C5.06875 14.7969 5.02188 15.3969 5.02188 15.9938C5.02188 16.5938 5.06875 17.1938 5.16563 17.7782L3.09375 19.5469C2.93936 19.6791 2.82886 19.8551 2.77695 20.0516C2.72504 20.2481 2.73417 20.4557 2.80313 20.6469L2.83125 20.7282C3.39688 22.3032 4.23438 23.7563 5.32188 25.0375L5.37813 25.1032C5.50955 25.2577 5.6847 25.3688 5.88051 25.4218C6.07631 25.4748 6.28358 25.4672 6.475 25.4L9.03438 24.4907C9.96563 25.2563 11.0063 25.8625 12.1281 26.2844L12.6219 28.9532C12.6589 29.153 12.7558 29.3369 12.8999 29.4804C13.0439 29.6238 13.2281 29.7201 13.4281 29.7563L13.5125 29.7719C15.1556 30.0672 16.8382 30.0672 18.4813 29.7719L18.5656 29.7563C18.7656 29.7201 18.9499 29.6238 19.0939 29.4804C19.2379 29.3369 19.3349 29.153 19.3719 28.9532L19.8625 26.2969C20.9933 25.873 22.0461 25.2648 22.9781 24.4969L25.5187 25.4C25.7101 25.4677 25.9175 25.4756 26.1135 25.4226C26.3094 25.3695 26.4845 25.2581 26.6156 25.1032L26.6719 25.0375C27.7594 23.7532 28.5969 22.3032 29.1625 20.7282L29.1906 20.6469C29.3312 20.2626 29.2156 19.8251 28.9 19.5532ZM24.6344 14.5594C24.7125 15.0313 24.7531 15.5157 24.7531 16C24.7531 16.4844 24.7125 16.9688 24.6344 17.4407L24.4281 18.6938L26.7625 20.6907C26.4086 21.506 25.9619 22.2777 25.4312 22.9907L22.5312 21.9625L21.55 22.7688C20.8031 23.3813 19.9719 23.8626 19.0719 24.2001L17.8813 24.6469L17.3219 27.6782C16.4393 27.7782 15.5482 27.7782 14.6656 27.6782L14.1062 24.6407L12.925 24.1875C12.0344 23.85 11.2063 23.3688 10.4656 22.7594L9.48438 21.9501L6.56563 22.9875C6.03438 22.2719 5.59063 21.5 5.23438 20.6875L7.59375 18.6719L7.39063 17.4219C7.31563 16.9563 7.275 16.475 7.275 16C7.275 15.5219 7.3125 15.0438 7.39063 14.5782L7.59375 13.3282L5.23438 11.3125C5.5875 10.4969 6.03438 9.72817 6.56563 9.01255L9.48438 10.05L10.4656 9.24067C11.2063 8.6313 12.0344 8.15005 12.925 7.81255L14.1094 7.36567L14.6687 4.32817C15.5469 4.22817 16.4438 4.22817 17.325 4.32817L17.8844 7.35942L19.075 7.8063C19.9719 8.1438 20.8062 8.62505 21.5531 9.23755L22.5344 10.0438L25.4344 9.01567C25.9656 9.7313 26.4094 10.5032 26.7656 11.3157L24.4312 13.3125L24.6344 14.5594ZM16 10.1875C12.9625 10.1875 10.5 12.65 10.5 15.6875C10.5 18.725 12.9625 21.1875 16 21.1875C19.0375 21.1875 21.5 18.725 21.5 15.6875C21.5 12.65 19.0375 10.1875 16 10.1875ZM18.475 18.1625C18.1504 18.4881 17.7646 18.7463 17.3398 18.9222C16.9151 19.0981 16.4597 19.1883 16 19.1875C15.0656 19.1875 14.1875 18.8219 13.525 18.1625C13.1994 17.8379 12.9413 17.4521 12.7654 17.0274C12.5895 16.6026 12.4993 16.1473 12.5 15.6875C12.5 14.7532 12.8656 13.875 13.525 13.2125C14.1875 12.55 15.0656 12.1875 16 12.1875C16.9344 12.1875 17.8125 12.55 18.475 13.2125C18.8006 13.5372 19.0587 13.923 19.2346 14.3477C19.4105 14.7725 19.5007 15.2278 19.5 15.6875C19.5 16.6219 19.1344 17.5 18.475 18.1625Z" fill="#5F6285"/>
</g>
</svg>
