<svg width="428" height="133" viewBox="0 0 428 133" fill="none" xmlns="http://www.w3.org/2000/svg">
<g id="Group 1">
<path id="Something Smells Good" d="M51.4695 22.336C57.0695 22.336 59.7855 19.536 59.7855 16.26C59.7855 9.064 48.3895 11.556 48.3895 7.944C48.3895 6.712 49.4255 5.704 52.1135 5.704C53.8495 5.704 55.7255 6.208 57.5455 7.244L58.9455 3.8C57.1255 2.652 54.6055 2.064 52.1415 2.064C46.5695 2.064 43.8815 4.836 43.8815 8.168C43.8815 15.448 55.2775 12.928 55.2775 16.596C55.2775 17.8 54.1855 18.696 51.4975 18.696C49.1455 18.696 46.6815 17.856 45.0295 16.652L43.4895 20.068C45.2255 21.412 48.3615 22.336 51.4695 22.336ZM69.1849 22.224C73.9729 22.224 77.4449 19.004 77.4449 14.468C77.4449 9.932 73.9729 6.712 69.1849 6.712C64.3969 6.712 60.8969 9.932 60.8969 14.468C60.8969 19.004 64.3969 22.224 69.1849 22.224ZM69.1849 18.64C67.0009 18.64 65.3209 17.072 65.3209 14.468C65.3209 11.864 67.0009 10.296 69.1849 10.296C71.3689 10.296 73.0209 11.864 73.0209 14.468C73.0209 17.072 71.3689 18.64 69.1849 18.64ZM99.0966 6.712C96.8286 6.712 94.8686 7.636 93.6646 9.176C92.6006 7.524 90.8086 6.712 88.7086 6.712C86.7766 6.712 85.0966 7.384 83.9766 8.672V6.936H79.8046V22H84.1726V14.44C84.1726 11.752 85.5446 10.492 87.4766 10.492C89.2966 10.492 90.3326 11.612 90.3326 14.048V22H94.7006V14.44C94.7006 11.752 96.0726 10.492 98.0326 10.492C99.7966 10.492 100.889 11.612 100.889 14.048V22H105.257V13.376C105.257 8.784 102.681 6.712 99.0966 6.712ZM123.532 14.524C123.532 9.68 120.116 6.712 115.692 6.712C111.1 6.712 107.656 9.96 107.656 14.468C107.656 18.948 111.044 22.224 116.252 22.224C118.968 22.224 121.068 21.384 122.468 19.788L120.144 17.268C119.108 18.248 117.96 18.724 116.364 18.724C114.068 18.724 112.472 17.576 112.052 15.7H123.448C123.476 15.336 123.532 14.86 123.532 14.524ZM115.72 10.016C117.68 10.016 119.108 11.248 119.416 13.152H111.996C112.304 11.22 113.732 10.016 115.72 10.016ZM134.42 18.192C133.944 18.556 133.3 18.752 132.656 18.752C131.48 18.752 130.78 18.052 130.78 16.764V10.632H134.532V7.272H130.78V3.604H126.412V7.272H124.088V10.632H126.412V16.82C126.412 20.404 128.484 22.224 132.04 22.224C133.384 22.224 134.7 21.916 135.596 21.272L134.42 18.192ZM146.644 6.712C144.712 6.712 143.032 7.328 141.856 8.504V1.224H137.488V22H141.856V14.552C141.856 11.78 143.368 10.492 145.468 10.492C147.4 10.492 148.52 11.612 148.52 14.048V22H152.888V13.376C152.888 8.784 150.2 6.712 146.644 6.712ZM158.471 4.836C160.095 4.836 161.187 3.772 161.187 2.316C161.187 0.971999 160.095 -0.0360017 158.471 -0.0360017C156.847 -0.0360017 155.755 1.028 155.755 2.4C155.755 3.772 156.847 4.836 158.471 4.836ZM156.287 22H160.655V6.936H156.287V22ZM173.305 6.712C171.261 6.712 169.497 7.412 168.321 8.7V6.936H164.149V22H168.517V14.552C168.517 11.78 170.029 10.492 172.129 10.492C174.061 10.492 175.181 11.612 175.181 14.048V22H179.549V13.376C179.549 8.784 176.861 6.712 173.305 6.712ZM194.509 6.936V8.868C193.361 7.412 191.625 6.712 189.525 6.712C185.353 6.712 181.993 9.596 181.993 13.992C181.993 18.388 185.353 21.272 189.525 21.272C191.485 21.272 193.137 20.656 194.285 19.396V20.04C194.285 22.756 192.941 24.156 189.861 24.156C187.929 24.156 185.829 23.484 184.541 22.448L182.805 25.584C184.569 26.956 187.341 27.656 190.197 27.656C195.629 27.656 198.653 25.08 198.653 19.48V6.936H194.509ZM190.393 17.688C188.097 17.688 186.417 16.204 186.417 13.992C186.417 11.78 188.097 10.296 190.393 10.296C192.689 10.296 194.341 11.78 194.341 13.992C194.341 16.204 192.689 17.688 190.393 17.688ZM216.276 22.336C221.876 22.336 224.592 19.536 224.592 16.26C224.592 9.064 213.196 11.556 213.196 7.944C213.196 6.712 214.232 5.704 216.92 5.704C218.656 5.704 220.532 6.208 222.352 7.244L223.752 3.8C221.932 2.652 219.412 2.064 216.948 2.064C211.376 2.064 208.688 4.836 208.688 8.168C208.688 15.448 220.084 12.928 220.084 16.596C220.084 17.8 218.992 18.696 216.304 18.696C213.952 18.696 211.488 17.856 209.836 16.652L208.296 20.068C210.032 21.412 213.168 22.336 216.276 22.336ZM246.115 6.712C243.847 6.712 241.887 7.636 240.683 9.176C239.619 7.524 237.827 6.712 235.727 6.712C233.795 6.712 232.115 7.384 230.995 8.672V6.936H226.823V22H231.191V14.44C231.191 11.752 232.563 10.492 234.495 10.492C236.315 10.492 237.351 11.612 237.351 14.048V22H241.719V14.44C241.719 11.752 243.091 10.492 245.051 10.492C246.815 10.492 247.907 11.612 247.907 14.048V22H252.275V13.376C252.275 8.784 249.699 6.712 246.115 6.712ZM270.55 14.524C270.55 9.68 267.134 6.712 262.71 6.712C258.118 6.712 254.674 9.96 254.674 14.468C254.674 18.948 258.062 22.224 263.27 22.224C265.986 22.224 268.086 21.384 269.486 19.788L267.162 17.268C266.126 18.248 264.978 18.724 263.382 18.724C261.086 18.724 259.49 17.576 259.07 15.7H270.466C270.494 15.336 270.55 14.86 270.55 14.524ZM262.738 10.016C264.698 10.016 266.126 11.248 266.434 13.152H259.014C259.322 11.22 260.75 10.016 262.738 10.016ZM272.899 22H277.267V1.224H272.899V22ZM280.76 22H285.128V1.224H280.76V22ZM293.69 22.224C298.198 22.224 300.802 20.236 300.802 17.436C300.802 11.5 291.702 13.992 291.702 11.416C291.702 10.632 292.542 10.016 294.502 10.016C295.874 10.016 297.358 10.296 298.842 11.136L300.298 8.028C298.87 7.188 296.574 6.712 294.502 6.712C290.106 6.712 287.53 8.728 287.53 11.584C287.53 17.604 296.63 15.084 296.63 17.548C296.63 18.388 295.874 18.92 293.858 18.92C292.01 18.92 289.966 18.332 288.622 17.464L287.166 20.6C288.566 21.524 291.142 22.224 293.69 22.224ZM323.859 17.632C322.711 18.248 321.563 18.472 320.331 18.472C316.579 18.472 313.975 15.868 313.975 12.2C313.975 8.476 316.579 5.928 320.387 5.928C322.375 5.928 324.027 6.628 325.455 8.14L328.367 5.452C326.463 3.24 323.607 2.064 320.163 2.064C313.919 2.064 309.383 6.292 309.383 12.2C309.383 18.108 313.919 22.336 320.079 22.336C322.879 22.336 325.847 21.468 328.003 19.844V11.892H323.859V17.632ZM338.517 22.224C343.305 22.224 346.777 19.004 346.777 14.468C346.777 9.932 343.305 6.712 338.517 6.712C333.729 6.712 330.229 9.932 330.229 14.468C330.229 19.004 333.729 22.224 338.517 22.224ZM338.517 18.64C336.333 18.64 334.653 17.072 334.653 14.468C334.653 11.864 336.333 10.296 338.517 10.296C340.701 10.296 342.353 11.864 342.353 14.468C342.353 17.072 340.701 18.64 338.517 18.64ZM356.304 22.224C361.092 22.224 364.564 19.004 364.564 14.468C364.564 9.932 361.092 6.712 356.304 6.712C351.516 6.712 348.016 9.932 348.016 14.468C348.016 19.004 351.516 22.224 356.304 22.224ZM356.304 18.64C354.12 18.64 352.44 17.072 352.44 14.468C352.44 11.864 354.12 10.296 356.304 10.296C358.488 10.296 360.14 11.864 360.14 14.468C360.14 17.072 358.488 18.64 356.304 18.64ZM377.9 1.224V8.532C376.808 7.3 375.24 6.712 373.392 6.712C369.136 6.712 365.86 9.736 365.86 14.468C365.86 19.2 369.136 22.224 373.392 22.224C375.408 22.224 377.004 21.58 378.096 20.264V22H382.268V1.224H377.9ZM374.148 18.64C371.964 18.64 370.284 17.072 370.284 14.468C370.284 11.864 371.964 10.296 374.148 10.296C376.304 10.296 377.984 11.864 377.984 14.468C377.984 17.072 376.304 18.64 374.148 18.64Z" fill="url(#paint0_linear_378_4)"/>
<g id="Vector 2" filter="url(#filter0_d_378_4)">
<path d="M0 123.762C10.2848 120.104 35.2405 108.881 83.4322 115.483C143.672 123.736 114.731 121.63 184.192 130.163C251.316 138.409 268.235 126.604 292.192 121.044C316.15 115.483 351.184 107.001 380.098 111.066C424.67 117.332 429.886 128.412 427.535 127.777" stroke="url(#paint1_linear_378_4)" stroke-width="10" stroke-linecap="round" stroke-dasharray="25 25"/>
</g>
</g>
<defs>
<filter id="filter0_d_378_4" x="-15.0014" y="105.1" width="457.996" height="52.8998" filterUnits="userSpaceOnUse" color-interpolation-filters="sRGB">
<feFlood flood-opacity="0" result="BackgroundImageFix"/>
<feColorMatrix in="SourceAlpha" type="matrix" values="0 0 0 0 0 0 0 0 0 0 0 0 0 0 0 0 0 0 127 0" result="hardAlpha"/>
<feOffset dy="10"/>
<feGaussianBlur stdDeviation="5"/>
<feComposite in2="hardAlpha" operator="out"/>
<feColorMatrix type="matrix" values="0 0 0 0 0 0 0 0 0 0 0 0 0 0 0 0 0 0 0.2 0"/>
<feBlend mode="normal" in2="BackgroundImageFix" result="effect1_dropShadow_378_4"/>
<feBlend mode="normal" in="SourceGraphic" in2="effect1_dropShadow_378_4" result="shape"/>
</filter>
<linearGradient id="paint0_linear_378_4" x1="40" y1="11.5" x2="387" y2="11.5" gradientUnits="userSpaceOnUse">
<stop stop-color="#FA02FF"/>
<stop offset="1" stop-color="#26BAE3"/>
</linearGradient>
<linearGradient id="paint1_linear_378_4" x1="212.608" y1="104.403" x2="212.608" y2="131.743" gradientUnits="userSpaceOnUse">
<stop stop-color="#FA02FF"/>
<stop offset="1" stop-color="#06D6DF"/>
</linearGradient>
</defs>
</svg>
