<svg width="1456" height="267" viewBox="0 0 1456 267" fill="none" xmlns="http://www.w3.org/2000/svg">
<g id="Group 75">
<path id="Something Smells Good" d="M354.332 44.768C350.748 44.768 347.313 44.2987 344.028 43.36C340.743 42.3787 338.097 41.12 336.092 39.584L339.612 31.776C341.532 33.1413 343.793 34.272 346.396 35.168C349.041 36.0213 351.708 36.448 354.396 36.448C356.444 36.448 358.087 36.256 359.324 35.872C360.604 35.4453 361.543 34.8693 362.14 34.144C362.737 33.4187 363.036 32.5867 363.036 31.648C363.036 30.4533 362.567 29.5147 361.628 28.832C360.689 28.1067 359.452 27.5307 357.916 27.104C356.38 26.6347 354.673 26.208 352.796 25.824C350.961 25.3973 349.105 24.8853 347.228 24.288C345.393 23.6907 343.708 22.9227 342.172 21.984C340.636 21.0453 339.377 19.808 338.396 18.272C337.457 16.736 336.988 14.7733 336.988 12.384C336.988 9.824 337.671 7.49866 339.036 5.408C340.444 3.27466 342.535 1.58933 345.308 0.351997C348.124 -0.928001 351.644 -1.568 355.868 -1.568C358.684 -1.568 361.457 -1.22667 364.188 -0.544003C366.919 0.0959969 369.329 1.07733 371.42 2.4L368.22 10.272C366.129 9.07733 364.039 8.20267 361.948 7.648C359.857 7.05067 357.809 6.752 355.804 6.752C353.799 6.752 352.156 6.98667 350.876 7.456C349.596 7.92533 348.679 8.544 348.124 9.312C347.569 10.0373 347.292 10.8907 347.292 11.872C347.292 13.024 347.761 13.9627 348.7 14.688C349.639 15.3707 350.876 15.9253 352.412 16.352C353.948 16.7787 355.633 17.2053 357.468 17.632C359.345 18.0587 361.201 18.5493 363.036 19.104C364.913 19.6587 366.62 20.4053 368.156 21.344C369.692 22.2827 370.929 23.52 371.868 25.056C372.849 26.592 373.34 28.5333 373.34 30.88C373.34 33.3973 372.636 35.7013 371.228 37.792C369.82 39.8827 367.708 41.568 364.892 42.848C362.119 44.128 358.599 44.768 354.332 44.768ZM394.824 44.512C391.155 44.512 387.891 43.744 385.032 42.208C382.216 40.672 379.976 38.5813 378.312 35.936C376.691 33.248 375.88 30.1973 375.88 26.784C375.88 23.328 376.691 20.2773 378.312 17.632C379.976 14.944 382.216 12.8533 385.032 11.36C387.891 9.824 391.155 9.056 394.824 9.056C398.451 9.056 401.694 9.824 404.552 11.36C407.411 12.8533 409.651 14.9227 411.272 17.568C412.894 20.2133 413.704 23.2853 413.704 26.784C413.704 30.1973 412.894 33.248 411.272 35.936C409.651 38.5813 407.411 40.672 404.552 42.208C401.694 43.744 398.451 44.512 394.824 44.512ZM394.824 36.32C396.488 36.32 397.982 35.936 399.304 35.168C400.627 34.4 401.672 33.312 402.44 31.904C403.208 30.4533 403.592 28.7467 403.592 26.784C403.592 24.7787 403.208 23.072 402.44 21.664C401.672 20.256 400.627 19.168 399.304 18.4C397.982 17.632 396.488 17.248 394.824 17.248C393.16 17.248 391.667 17.632 390.344 18.4C389.022 19.168 387.955 20.256 387.144 21.664C386.376 23.072 385.992 24.7787 385.992 26.784C385.992 28.7467 386.376 30.4533 387.144 31.904C387.955 33.312 389.022 34.4 390.344 35.168C391.667 35.936 393.16 36.32 394.824 36.32ZM463.194 9.056C465.925 9.056 468.335 9.61067 470.426 10.72C472.559 11.7867 474.223 13.4507 475.418 15.712C476.655 17.9307 477.274 20.7893 477.274 24.288V44H467.29V25.824C467.29 23.0507 466.714 21.0027 465.562 19.68C464.41 18.3573 462.789 17.696 460.698 17.696C459.247 17.696 457.946 18.0373 456.794 18.72C455.642 19.36 454.746 20.3413 454.106 21.664C453.466 22.9867 453.146 24.672 453.146 26.72V44H443.162V25.824C443.162 23.0507 442.586 21.0027 441.434 19.68C440.325 18.3573 438.725 17.696 436.634 17.696C435.183 17.696 433.882 18.0373 432.73 18.72C431.578 19.36 430.682 20.3413 430.042 21.664C429.402 22.9867 429.082 24.672 429.082 26.72V44H419.098V9.568H428.634V18.976L426.842 16.224C428.037 13.8773 429.722 12.1067 431.898 10.912C434.117 9.67467 436.634 9.056 439.45 9.056C442.607 9.056 445.359 9.86667 447.706 11.488C450.095 13.0667 451.674 15.4987 452.442 18.784L448.922 17.824C450.074 15.136 451.909 13.0027 454.426 11.424C456.986 9.84533 459.909 9.056 463.194 9.056ZM502.281 44.512C498.356 44.512 494.9 43.744 491.913 42.208C488.969 40.672 486.686 38.5813 485.065 35.936C483.444 33.248 482.633 30.1973 482.633 26.784C482.633 23.328 483.422 20.2773 485.001 17.632C486.622 14.944 488.82 12.8533 491.593 11.36C494.366 9.824 497.502 9.056 501.001 9.056C504.372 9.056 507.401 9.78133 510.089 11.232C512.82 12.64 514.974 14.688 516.553 17.376C518.132 20.0213 518.921 23.2 518.921 26.912C518.921 27.296 518.9 27.744 518.857 28.256C518.814 28.7253 518.772 29.1733 518.729 29.6H490.761V23.776H513.481L509.641 25.504C509.641 23.712 509.278 22.1547 508.553 20.832C507.828 19.5093 506.825 18.4853 505.545 17.76C504.265 16.992 502.772 16.608 501.065 16.608C499.358 16.608 497.844 16.992 496.521 17.76C495.241 18.4853 494.238 19.5307 493.513 20.896C492.788 22.2187 492.425 23.7973 492.425 25.632V27.168C492.425 29.0453 492.83 30.7093 493.641 32.16C494.494 33.568 495.668 34.656 497.161 35.424C498.697 36.1493 500.489 36.512 502.537 36.512C504.372 36.512 505.972 36.2347 507.337 35.68C508.745 35.1253 510.025 34.2933 511.177 33.184L516.489 38.944C514.91 40.736 512.926 42.1227 510.537 43.104C508.148 44.0427 505.396 44.512 502.281 44.512ZM538.368 44.512C534.315 44.512 531.157 43.488 528.896 41.44C526.635 39.3493 525.504 36.256 525.504 32.16V1.952H535.488V32.032C535.488 33.4827 535.872 34.6133 536.64 35.424C537.408 36.192 538.453 36.576 539.776 36.576C541.355 36.576 542.699 36.1493 543.808 35.296L546.496 42.336C545.472 43.0613 544.235 43.616 542.784 44C541.376 44.3413 539.904 44.512 538.368 44.512ZM520.192 18.016V10.336H544.064V18.016H520.192ZM571.748 9.056C574.479 9.056 576.911 9.61067 579.044 10.72C581.22 11.7867 582.927 13.4507 584.164 15.712C585.402 17.9307 586.02 20.7893 586.02 24.288V44H576.036V25.824C576.036 23.0507 575.418 21.0027 574.18 19.68C572.986 18.3573 571.279 17.696 569.06 17.696C567.482 17.696 566.052 18.0373 564.772 18.72C563.535 19.36 562.554 20.3627 561.828 21.728C561.146 23.0933 560.804 24.8427 560.804 26.976V44H550.82V-3.488H560.804V19.104L558.564 16.224C559.802 13.92 561.572 12.1493 563.876 10.912C566.18 9.67467 568.804 9.056 571.748 9.056ZM593.79 44V9.568H603.774V44H593.79ZM598.782 4.768C596.948 4.768 595.454 4.23466 594.302 3.168C593.15 2.10133 592.574 0.778664 592.574 -0.800003C592.574 -2.37867 593.15 -3.70134 594.302 -4.768C595.454 -5.83467 596.948 -6.368 598.782 -6.368C600.617 -6.368 602.11 -5.856 603.262 -4.832C604.414 -3.85067 604.99 -2.57067 604.99 -0.992001C604.99 0.671998 604.414 2.05866 603.262 3.168C602.153 4.23466 600.66 4.768 598.782 4.768ZM632.688 9.056C635.419 9.056 637.851 9.61067 639.984 10.72C642.16 11.7867 643.867 13.4507 645.104 15.712C646.342 17.9307 646.96 20.7893 646.96 24.288V44H636.976V25.824C636.976 23.0507 636.358 21.0027 635.12 19.68C633.926 18.3573 632.219 17.696 630 17.696C628.422 17.696 626.992 18.0373 625.712 18.72C624.475 19.36 623.494 20.3627 622.768 21.728C622.086 23.0933 621.744 24.8427 621.744 26.976V44H611.76V9.568H621.296V19.104L619.504 16.224C620.742 13.92 622.512 12.1493 624.816 10.912C627.12 9.67467 629.744 9.056 632.688 9.056ZM671.172 56.928C667.93 56.928 664.794 56.5227 661.764 55.712C658.778 54.944 656.282 53.7707 654.276 52.192L658.244 45.024C659.695 46.2187 661.53 47.1573 663.748 47.84C666.01 48.5653 668.228 48.928 670.404 48.928C673.946 48.928 676.506 48.1387 678.084 46.56C679.706 44.9813 680.516 42.6347 680.516 39.52V34.336L681.156 25.696L681.028 16.992V9.568H690.5V38.24C690.5 44.64 688.836 49.3547 685.508 52.384C682.18 55.4133 677.402 56.928 671.172 56.928ZM669.636 42.336C666.436 42.336 663.535 41.6533 660.932 40.288C658.372 38.88 656.303 36.9387 654.724 34.464C653.188 31.9467 652.42 29.024 652.42 25.696C652.42 22.3253 653.188 19.4027 654.724 16.928C656.303 14.4107 658.372 12.4693 660.932 11.104C663.535 9.73867 666.436 9.056 669.636 9.056C672.538 9.056 675.098 9.65333 677.316 10.848C679.535 12 681.263 13.8133 682.5 16.288C683.738 18.72 684.356 21.856 684.356 25.696C684.356 29.4933 683.738 32.6293 682.5 35.104C681.263 37.536 679.535 39.3493 677.316 40.544C675.098 41.7387 672.538 42.336 669.636 42.336ZM671.62 34.144C673.37 34.144 674.927 33.8027 676.292 33.12C677.658 32.3947 678.724 31.392 679.492 30.112C680.26 28.832 680.644 27.36 680.644 25.696C680.644 23.9893 680.26 22.5173 679.492 21.28C678.724 20 677.658 19.0187 676.292 18.336C674.927 17.6107 673.37 17.248 671.62 17.248C669.871 17.248 668.314 17.6107 666.948 18.336C665.583 19.0187 664.495 20 663.684 21.28C662.916 22.5173 662.532 23.9893 662.532 25.696C662.532 27.36 662.916 28.832 663.684 30.112C664.495 31.392 665.583 32.3947 666.948 33.12C668.314 33.8027 669.871 34.144 671.62 34.144ZM730.782 44.768C727.198 44.768 723.763 44.2987 720.478 43.36C717.193 42.3787 714.547 41.12 712.542 39.584L716.062 31.776C717.982 33.1413 720.243 34.272 722.846 35.168C725.491 36.0213 728.158 36.448 730.846 36.448C732.894 36.448 734.537 36.256 735.774 35.872C737.054 35.4453 737.993 34.8693 738.59 34.144C739.187 33.4187 739.486 32.5867 739.486 31.648C739.486 30.4533 739.017 29.5147 738.078 28.832C737.139 28.1067 735.902 27.5307 734.366 27.104C732.83 26.6347 731.123 26.208 729.246 25.824C727.411 25.3973 725.555 24.8853 723.678 24.288C721.843 23.6907 720.158 22.9227 718.622 21.984C717.086 21.0453 715.827 19.808 714.846 18.272C713.907 16.736 713.438 14.7733 713.438 12.384C713.438 9.824 714.121 7.49866 715.486 5.408C716.894 3.27466 718.985 1.58933 721.758 0.351997C724.574 -0.928001 728.094 -1.568 732.318 -1.568C735.134 -1.568 737.907 -1.22667 740.638 -0.544003C743.369 0.0959969 745.779 1.07733 747.87 2.4L744.67 10.272C742.579 9.07733 740.489 8.20267 738.398 7.648C736.307 7.05067 734.259 6.752 732.254 6.752C730.249 6.752 728.606 6.98667 727.326 7.456C726.046 7.92533 725.129 8.544 724.574 9.312C724.019 10.0373 723.742 10.8907 723.742 11.872C723.742 13.024 724.211 13.9627 725.15 14.688C726.089 15.3707 727.326 15.9253 728.862 16.352C730.398 16.7787 732.083 17.2053 733.918 17.632C735.795 18.0587 737.651 18.5493 739.486 19.104C741.363 19.6587 743.07 20.4053 744.606 21.344C746.142 22.2827 747.379 23.52 748.318 25.056C749.299 26.592 749.79 28.5333 749.79 30.88C749.79 33.3973 749.086 35.7013 747.678 37.792C746.27 39.8827 744.158 41.568 741.342 42.848C738.569 44.128 735.049 44.768 730.782 44.768ZM798.987 9.056C801.717 9.056 804.128 9.61067 806.219 10.72C808.352 11.7867 810.016 13.4507 811.211 15.712C812.448 17.9307 813.067 20.7893 813.067 24.288V44H803.083V25.824C803.083 23.0507 802.507 21.0027 801.355 19.68C800.203 18.3573 798.581 17.696 796.491 17.696C795.04 17.696 793.739 18.0373 792.587 18.72C791.435 19.36 790.539 20.3413 789.899 21.664C789.259 22.9867 788.939 24.672 788.939 26.72V44H778.955V25.824C778.955 23.0507 778.379 21.0027 777.227 19.68C776.117 18.3573 774.517 17.696 772.427 17.696C770.976 17.696 769.675 18.0373 768.523 18.72C767.371 19.36 766.475 20.3413 765.835 21.664C765.195 22.9867 764.875 24.672 764.875 26.72V44H754.891V9.568H764.427V18.976L762.635 16.224C763.829 13.8773 765.515 12.1067 767.691 10.912C769.909 9.67467 772.427 9.056 775.243 9.056C778.4 9.056 781.152 9.86667 783.499 11.488C785.888 13.0667 787.467 15.4987 788.235 18.784L784.715 17.824C785.867 15.136 787.701 13.0027 790.219 11.424C792.779 9.84533 795.701 9.056 798.987 9.056ZM838.074 44.512C834.148 44.512 830.692 43.744 827.706 42.208C824.762 40.672 822.479 38.5813 820.858 35.936C819.236 33.248 818.426 30.1973 818.426 26.784C818.426 23.328 819.215 20.2773 820.794 17.632C822.415 14.944 824.612 12.8533 827.386 11.36C830.159 9.824 833.295 9.056 836.794 9.056C840.164 9.056 843.194 9.78133 845.882 11.232C848.612 12.64 850.767 14.688 852.346 17.376C853.924 20.0213 854.714 23.2 854.714 26.912C854.714 27.296 854.692 27.744 854.65 28.256C854.607 28.7253 854.564 29.1733 854.522 29.6H826.554V23.776H849.274L845.434 25.504C845.434 23.712 845.071 22.1547 844.346 20.832C843.62 19.5093 842.618 18.4853 841.338 17.76C840.058 16.992 838.564 16.608 836.858 16.608C835.151 16.608 833.636 16.992 832.314 17.76C831.034 18.4853 830.031 19.5307 829.306 20.896C828.58 22.2187 828.218 23.7973 828.218 25.632V27.168C828.218 29.0453 828.623 30.7093 829.434 32.16C830.287 33.568 831.46 34.656 832.954 35.424C834.49 36.1493 836.282 36.512 838.33 36.512C840.164 36.512 841.764 36.2347 843.13 35.68C844.538 35.1253 845.818 34.2933 846.97 33.184L852.282 38.944C850.703 40.736 848.719 42.1227 846.33 43.104C843.94 44.0427 841.188 44.512 838.074 44.512ZM860.08 44V-3.488H870.064V44H860.08ZM878.051 44V-3.488H888.035V44H878.051ZM907.604 44.512C904.66 44.512 901.823 44.1707 899.092 43.488C896.404 42.7627 894.271 41.8667 892.692 40.8L896.02 33.632C897.599 34.6133 899.455 35.424 901.588 36.064C903.764 36.6613 905.898 36.96 907.988 36.96C910.292 36.96 911.914 36.6827 912.852 36.128C913.834 35.5733 914.324 34.8053 914.324 33.824C914.324 33.0133 913.94 32.416 913.172 32.032C912.447 31.6053 911.466 31.2853 910.228 31.072C908.991 30.8587 907.626 30.6453 906.132 30.432C904.682 30.2187 903.21 29.9413 901.716 29.6C900.223 29.216 898.858 28.6613 897.62 27.936C896.383 27.2107 895.38 26.2293 894.612 24.992C893.887 23.7547 893.524 22.1547 893.524 20.192C893.524 18.016 894.143 16.096 895.38 14.432C896.66 12.768 898.495 11.4667 900.884 10.528C903.274 9.54667 906.132 9.056 909.46 9.056C911.807 9.056 914.196 9.312 916.628 9.824C919.06 10.336 921.087 11.0827 922.708 12.064L919.38 19.168C917.716 18.1867 916.031 17.5253 914.324 17.184C912.66 16.8 911.039 16.608 909.46 16.608C907.242 16.608 905.62 16.9067 904.596 17.504C903.572 18.1013 903.06 18.8693 903.06 19.808C903.06 20.6613 903.423 21.3013 904.148 21.728C904.916 22.1547 905.919 22.496 907.156 22.752C908.394 23.008 909.738 23.2427 911.188 23.456C912.682 23.6267 914.175 23.904 915.668 24.288C917.162 24.672 918.506 25.2267 919.7 25.952C920.938 26.6347 921.94 27.5947 922.708 28.832C923.476 30.0267 923.86 31.6053 923.86 33.568C923.86 35.7013 923.22 37.6 921.94 39.264C920.66 40.8853 918.804 42.1653 916.372 43.104C913.983 44.0427 911.06 44.512 907.604 44.512ZM967.921 44.768C964.38 44.768 961.116 44.2133 958.129 43.104C955.185 41.952 952.604 40.3307 950.385 38.24C948.209 36.1493 946.503 33.696 945.265 30.88C944.071 28.064 943.473 24.9707 943.473 21.6C943.473 18.2293 944.071 15.136 945.265 12.32C946.503 9.504 948.231 7.05066 950.449 4.96C952.668 2.86933 955.271 1.26933 958.257 0.159996C961.244 -0.992002 964.529 -1.568 968.113 -1.568C972.081 -1.568 975.644 -0.906668 978.801 0.415997C982.001 1.73866 984.689 3.65866 986.865 6.176L980.209 12.32C978.588 10.6133 976.817 9.35467 974.897 8.544C972.977 7.69067 970.887 7.264 968.625 7.264C966.449 7.264 964.465 7.60533 962.673 8.288C960.881 8.97066 959.324 9.952 958.001 11.232C956.721 12.512 955.719 14.0267 954.993 15.776C954.311 17.5253 953.969 19.4667 953.969 21.6C953.969 23.6907 954.311 25.6107 954.993 27.36C955.719 29.1093 956.721 30.6453 958.001 31.968C959.324 33.248 960.86 34.2293 962.609 34.912C964.401 35.5947 966.364 35.936 968.497 35.936C970.545 35.936 972.529 35.616 974.449 34.976C976.412 34.2933 978.311 33.1627 980.145 31.584L986.033 39.072C983.601 40.9067 980.764 42.3147 977.521 43.296C974.321 44.2773 971.121 44.768 967.921 44.768ZM976.561 37.728V20.896H986.033V39.072L976.561 37.728ZM1010.06 44.512C1006.4 44.512 1003.13 43.744 1000.27 42.208C997.457 40.672 995.217 38.5813 993.553 35.936C991.931 33.248 991.121 30.1973 991.121 26.784C991.121 23.328 991.931 20.2773 993.553 17.632C995.217 14.944 997.457 12.8533 1000.27 11.36C1003.13 9.824 1006.4 9.056 1010.06 9.056C1013.69 9.056 1016.93 9.824 1019.79 11.36C1022.65 12.8533 1024.89 14.9227 1026.51 17.568C1028.13 20.2133 1028.94 23.2853 1028.94 26.784C1028.94 30.1973 1028.13 33.248 1026.51 35.936C1024.89 38.5813 1022.65 40.672 1019.79 42.208C1016.93 43.744 1013.69 44.512 1010.06 44.512ZM1010.06 36.32C1011.73 36.32 1013.22 35.936 1014.54 35.168C1015.87 34.4 1016.91 33.312 1017.68 31.904C1018.45 30.4533 1018.83 28.7467 1018.83 26.784C1018.83 24.7787 1018.45 23.072 1017.68 21.664C1016.91 20.256 1015.87 19.168 1014.54 18.4C1013.22 17.632 1011.73 17.248 1010.06 17.248C1008.4 17.248 1006.91 17.632 1005.58 18.4C1004.26 19.168 1003.2 20.256 1002.38 21.664C1001.62 23.072 1001.23 24.7787 1001.23 26.784C1001.23 28.7467 1001.62 30.4533 1002.38 31.904C1003.2 33.312 1004.26 34.4 1005.58 35.168C1006.91 35.936 1008.4 36.32 1010.06 36.32ZM1050.72 44.512C1047.05 44.512 1043.79 43.744 1040.93 42.208C1038.11 40.672 1035.87 38.5813 1034.21 35.936C1032.59 33.248 1031.78 30.1973 1031.78 26.784C1031.78 23.328 1032.59 20.2773 1034.21 17.632C1035.87 14.944 1038.11 12.8533 1040.93 11.36C1043.79 9.824 1047.05 9.056 1050.72 9.056C1054.35 9.056 1057.59 9.824 1060.45 11.36C1063.31 12.8533 1065.55 14.9227 1067.17 17.568C1068.79 20.2133 1069.6 23.2853 1069.6 26.784C1069.6 30.1973 1068.79 33.248 1067.17 35.936C1065.55 38.5813 1063.31 40.672 1060.45 42.208C1057.59 43.744 1054.35 44.512 1050.72 44.512ZM1050.72 36.32C1052.39 36.32 1053.88 35.936 1055.2 35.168C1056.52 34.4 1057.57 33.312 1058.34 31.904C1059.11 30.4533 1059.49 28.7467 1059.49 26.784C1059.49 24.7787 1059.11 23.072 1058.34 21.664C1057.57 20.256 1056.52 19.168 1055.2 18.4C1053.88 17.632 1052.39 17.248 1050.72 17.248C1049.06 17.248 1047.56 17.632 1046.24 18.4C1044.92 19.168 1043.85 20.256 1043.04 21.664C1042.27 23.072 1041.89 24.7787 1041.89 26.784C1041.89 28.7467 1042.27 30.4533 1043.04 31.904C1043.85 33.312 1044.92 34.4 1046.24 35.168C1047.56 35.936 1049.06 36.32 1050.72 36.32ZM1089.78 44.512C1086.54 44.512 1083.61 43.7867 1081.01 42.336C1078.41 40.8427 1076.34 38.7733 1074.8 36.128C1073.31 33.4827 1072.56 30.368 1072.56 26.784C1072.56 23.1573 1073.31 20.0213 1074.8 17.376C1076.34 14.7307 1078.41 12.6827 1081.01 11.232C1083.61 9.78133 1086.54 9.056 1089.78 9.056C1092.68 9.056 1095.22 9.696 1097.4 10.976C1099.57 12.256 1101.26 14.1973 1102.45 16.8C1103.65 19.4027 1104.24 22.7307 1104.24 26.784C1104.24 30.7947 1103.67 34.1227 1102.52 36.768C1101.36 39.3707 1099.7 41.312 1097.52 42.592C1095.39 43.872 1092.81 44.512 1089.78 44.512ZM1091.51 36.32C1093.13 36.32 1094.6 35.936 1095.92 35.168C1097.25 34.4 1098.29 33.312 1099.06 31.904C1099.87 30.4533 1100.28 28.7467 1100.28 26.784C1100.28 24.7787 1099.87 23.072 1099.06 21.664C1098.29 20.256 1097.25 19.168 1095.92 18.4C1094.6 17.632 1093.13 17.248 1091.51 17.248C1089.84 17.248 1088.35 17.632 1087.03 18.4C1085.7 19.168 1084.64 20.256 1083.83 21.664C1083.06 23.072 1082.68 24.7787 1082.68 26.784C1082.68 28.7467 1083.06 30.4533 1083.83 31.904C1084.64 33.312 1085.7 34.4 1087.03 35.168C1088.35 35.936 1089.84 36.32 1091.51 36.32ZM1100.53 44V36.96L1100.72 26.72L1100.08 16.544V-3.488H1110.07V44H1100.53Z" fill="url(#paint0_linear_348_175)"/>
<g id="Something Smells Good_2" filter="url(#filter0_f_348_175)">
<path d="M323.705 95.68C319.987 95.68 316.429 95.1587 313.029 94.116C309.629 93.028 306.931 91.6453 304.937 89.968L307.997 83.1C309.901 84.596 312.258 85.8427 315.069 86.84C317.879 87.8373 320.758 88.336 323.705 88.336C326.198 88.336 328.215 88.064 329.757 87.52C331.298 86.976 332.431 86.2507 333.157 85.344C333.882 84.392 334.245 83.3267 334.245 82.148C334.245 80.6973 333.723 79.5413 332.681 78.68C331.638 77.7733 330.278 77.0707 328.601 76.572C326.969 76.028 325.133 75.5293 323.093 75.076C321.098 74.6227 319.081 74.1013 317.041 73.512C315.046 72.8773 313.21 72.084 311.533 71.132C309.901 70.1347 308.563 68.82 307.521 67.188C306.478 65.556 305.957 63.4707 305.957 60.932C305.957 58.348 306.637 55.9907 307.997 53.86C309.402 51.684 311.51 49.9613 314.321 48.692C317.177 47.3773 320.781 46.72 325.133 46.72C327.989 46.72 330.822 47.0827 333.633 47.808C336.443 48.5333 338.891 49.576 340.977 50.936L338.189 57.804C336.058 56.5347 333.859 55.6053 331.593 55.016C329.326 54.3813 327.15 54.064 325.065 54.064C322.617 54.064 320.622 54.3587 319.081 54.948C317.585 55.5373 316.474 56.308 315.749 57.26C315.069 58.212 314.729 59.3 314.729 60.524C314.729 61.9747 315.227 63.1533 316.225 64.06C317.267 64.9213 318.605 65.6013 320.237 66.1C321.914 66.5987 323.773 67.0973 325.813 67.596C327.853 68.0493 329.87 68.5707 331.865 69.16C333.905 69.7493 335.741 70.52 337.373 71.472C339.05 72.424 340.387 73.716 341.385 75.348C342.427 76.98 342.949 79.0427 342.949 81.536C342.949 84.0747 342.246 86.432 340.841 88.608C339.481 90.7387 337.373 92.4613 334.517 93.776C331.661 95.0453 328.057 95.68 323.705 95.68ZM367.218 95.476C363.501 95.476 360.192 94.6827 357.29 93.096C354.389 91.464 352.1 89.2427 350.422 86.432C348.745 83.6213 347.906 80.4253 347.906 76.844C347.906 73.2173 348.745 70.0213 350.422 67.256C352.1 64.4453 354.389 62.2467 357.29 60.66C360.192 59.0733 363.501 58.28 367.218 58.28C370.981 58.28 374.313 59.0733 377.214 60.66C380.161 62.2467 382.45 64.4227 384.082 67.188C385.76 69.9533 386.598 73.172 386.598 76.844C386.598 80.4253 385.76 83.6213 384.082 86.432C382.45 89.2427 380.161 91.464 377.214 93.096C374.313 94.6827 370.981 95.476 367.218 95.476ZM367.218 88.2C369.304 88.2 371.162 87.7467 372.794 86.84C374.426 85.9333 375.696 84.6187 376.602 82.896C377.554 81.1733 378.03 79.156 378.03 76.844C378.03 74.4867 377.554 72.4693 376.602 70.792C375.696 69.0693 374.426 67.7547 372.794 66.848C371.162 65.9413 369.326 65.488 367.286 65.488C365.201 65.488 363.342 65.9413 361.71 66.848C360.124 67.7547 358.854 69.0693 357.902 70.792C356.95 72.4693 356.474 74.4867 356.474 76.844C356.474 79.156 356.95 81.1733 357.902 82.896C358.854 84.6187 360.124 85.9333 361.71 86.84C363.342 87.7467 365.178 88.2 367.218 88.2ZM440.558 58.28C443.46 58.28 446.021 58.8467 448.242 59.98C450.509 61.1133 452.277 62.8587 453.546 65.216C454.816 67.528 455.45 70.52 455.45 74.192V95H446.95V75.28C446.95 72.0613 446.248 69.6587 444.842 68.072C443.437 66.4853 441.42 65.692 438.79 65.692C436.932 65.692 435.277 66.1 433.826 66.916C432.421 67.732 431.31 68.9333 430.494 70.52C429.724 72.1067 429.338 74.124 429.338 76.572V95H420.838V75.28C420.838 72.0613 420.136 69.6587 418.73 68.072C417.325 66.4853 415.308 65.692 412.678 65.692C410.82 65.692 409.165 66.1 407.714 66.916C406.309 67.732 405.198 68.9333 404.382 70.52C403.612 72.1067 403.226 74.124 403.226 76.572V95H394.726V58.688H402.818V68.344L401.39 65.488C402.614 63.1307 404.382 61.34 406.694 60.116C409.052 58.892 411.726 58.28 414.718 58.28C418.118 58.28 421.065 59.1187 423.558 60.796C426.097 62.4733 427.774 65.012 428.59 68.412L425.258 67.256C426.437 64.536 428.386 62.36 431.106 60.728C433.826 59.096 436.977 58.28 440.558 58.28ZM483.447 95.476C479.412 95.476 475.876 94.6827 472.839 93.096C469.847 91.464 467.512 89.2427 465.835 86.432C464.203 83.6213 463.387 80.4253 463.387 76.844C463.387 73.2173 464.18 70.0213 465.767 67.256C467.399 64.4453 469.62 62.2467 472.431 60.66C475.287 59.0733 478.528 58.28 482.155 58.28C485.691 58.28 488.841 59.0507 491.607 60.592C494.372 62.1333 496.548 64.3093 498.135 67.12C499.721 69.9307 500.515 73.24 500.515 77.048C500.515 77.4107 500.492 77.8187 500.447 78.272C500.447 78.7253 500.424 79.156 500.379 79.564H470.119V73.92H495.891L492.559 75.688C492.604 73.6027 492.173 71.7667 491.267 70.18C490.36 68.5933 489.113 67.3467 487.527 66.44C485.985 65.5333 484.195 65.08 482.155 65.08C480.069 65.08 478.233 65.5333 476.647 66.44C475.105 67.3467 473.881 68.616 472.975 70.248C472.113 71.8347 471.683 73.716 471.683 75.892V77.252C471.683 79.428 472.181 81.3547 473.179 83.032C474.176 84.7093 475.581 86.0013 477.395 86.908C479.208 87.8147 481.293 88.268 483.651 88.268C485.691 88.268 487.527 87.9507 489.159 87.316C490.791 86.6813 492.241 85.684 493.511 84.324L498.067 89.56C496.435 91.464 494.372 92.9373 491.879 93.98C489.431 94.9773 486.62 95.476 483.447 95.476ZM522.348 95.476C518.358 95.476 515.276 94.456 513.1 92.416C510.924 90.3307 509.836 87.2707 509.836 83.236V50.664H518.336V83.032C518.336 84.7547 518.766 86.092 519.628 87.044C520.534 87.996 521.781 88.472 523.368 88.472C525.272 88.472 526.858 87.9733 528.128 86.976L530.508 93.028C529.51 93.844 528.286 94.456 526.836 94.864C525.385 95.272 523.889 95.476 522.348 95.476ZM503.852 65.76V58.96H528.06V65.76H503.852ZM558.104 58.28C561.005 58.28 563.589 58.8467 565.856 59.98C568.168 61.1133 569.981 62.8587 571.296 65.216C572.61 67.528 573.268 70.52 573.268 74.192V95H564.768V75.28C564.768 72.0613 563.997 69.6587 562.456 68.072C560.96 66.4853 558.852 65.692 556.132 65.692C554.137 65.692 552.369 66.1 550.828 66.916C549.286 67.732 548.085 68.956 547.224 70.588C546.408 72.1747 546 74.192 546 76.64V95H537.5V44.544H546V68.48L544.164 65.488C545.433 63.176 547.269 61.408 549.672 60.184C552.12 58.9147 554.93 58.28 558.104 58.28ZM584.051 95V58.688H592.551V95H584.051ZM588.335 52.704C586.748 52.704 585.433 52.2053 584.391 51.208C583.393 50.2107 582.895 49.0093 582.895 47.604C582.895 46.1533 583.393 44.952 584.391 44C585.433 43.0027 586.748 42.504 588.335 42.504C589.921 42.504 591.213 42.98 592.211 43.932C593.253 44.8387 593.775 45.9947 593.775 47.4C593.775 48.896 593.276 50.1653 592.279 51.208C591.281 52.2053 589.967 52.704 588.335 52.704ZM624.311 58.28C627.212 58.28 629.796 58.8467 632.063 59.98C634.375 61.1133 636.188 62.8587 637.503 65.216C638.818 67.528 639.475 70.52 639.475 74.192V95H630.975V75.28C630.975 72.0613 630.204 69.6587 628.663 68.072C627.167 66.4853 625.059 65.692 622.339 65.692C620.344 65.692 618.576 66.1 617.035 66.916C615.494 67.732 614.292 68.956 613.431 70.588C612.615 72.1747 612.207 74.192 612.207 76.64V95H603.707V58.688H611.799V68.48L610.371 65.488C611.64 63.176 613.476 61.408 615.879 60.184C618.327 58.9147 621.138 58.28 624.311 58.28ZM666.78 108.668C663.425 108.668 660.139 108.215 656.92 107.308C653.747 106.447 651.14 105.177 649.1 103.5L652.908 97.108C654.495 98.4227 656.489 99.4653 658.892 100.236C661.34 101.052 663.811 101.46 666.304 101.46C670.293 101.46 673.217 100.531 675.076 98.672C676.935 96.8587 677.864 94.116 677.864 90.444V83.984L678.544 75.756L678.272 67.528V58.688H686.364V89.492C686.364 96.0653 684.687 100.893 681.332 103.976C677.977 107.104 673.127 108.668 666.78 108.668ZM665.692 93.368C662.247 93.368 659.119 92.6427 656.308 91.192C653.543 89.696 651.344 87.6333 649.712 85.004C648.125 82.3747 647.332 79.292 647.332 75.756C647.332 72.2653 648.125 69.2053 649.712 66.576C651.344 63.9467 653.543 61.9067 656.308 60.456C659.119 59.0053 662.247 58.28 665.692 58.28C668.775 58.28 671.54 58.892 673.988 60.116C676.436 61.34 678.385 63.244 679.836 65.828C681.332 68.412 682.08 71.7213 682.08 75.756C682.08 79.7907 681.332 83.1227 679.836 85.752C678.385 88.336 676.436 90.2627 673.988 91.532C671.54 92.756 668.775 93.368 665.692 93.368ZM666.984 86.16C669.115 86.16 671.019 85.7293 672.696 84.868C674.373 83.9613 675.665 82.7373 676.572 81.196C677.524 79.6093 678 77.796 678 75.756C678 73.716 677.524 71.9253 676.572 70.384C675.665 68.7973 674.373 67.596 672.696 66.78C671.019 65.9187 669.115 65.488 666.984 65.488C664.853 65.488 662.927 65.9187 661.204 66.78C659.527 67.596 658.212 68.7973 657.26 70.384C656.353 71.9253 655.9 73.716 655.9 75.756C655.9 77.796 656.353 79.6093 657.26 81.196C658.212 82.7373 659.527 83.9613 661.204 84.868C662.927 85.7293 664.853 86.16 666.984 86.16ZM731.904 95.68C728.187 95.68 724.628 95.1587 721.228 94.116C717.828 93.028 715.131 91.6453 713.136 89.968L716.196 83.1C718.1 84.596 720.457 85.8427 723.268 86.84C726.079 87.8373 728.957 88.336 731.904 88.336C734.397 88.336 736.415 88.064 737.956 87.52C739.497 86.976 740.631 86.2507 741.356 85.344C742.081 84.392 742.444 83.3267 742.444 82.148C742.444 80.6973 741.923 79.5413 740.88 78.68C739.837 77.7733 738.477 77.0707 736.8 76.572C735.168 76.028 733.332 75.5293 731.292 75.076C729.297 74.6227 727.28 74.1013 725.24 73.512C723.245 72.8773 721.409 72.084 719.732 71.132C718.1 70.1347 716.763 68.82 715.72 67.188C714.677 65.556 714.156 63.4707 714.156 60.932C714.156 58.348 714.836 55.9907 716.196 53.86C717.601 51.684 719.709 49.9613 722.52 48.692C725.376 47.3773 728.98 46.72 733.332 46.72C736.188 46.72 739.021 47.0827 741.832 47.808C744.643 48.5333 747.091 49.576 749.176 50.936L746.388 57.804C744.257 56.5347 742.059 55.6053 739.792 55.016C737.525 54.3813 735.349 54.064 733.264 54.064C730.816 54.064 728.821 54.3587 727.28 54.948C725.784 55.5373 724.673 56.308 723.948 57.26C723.268 58.212 722.928 59.3 722.928 60.524C722.928 61.9747 723.427 63.1533 724.424 64.06C725.467 64.9213 726.804 65.6013 728.436 66.1C730.113 66.5987 731.972 67.0973 734.012 67.596C736.052 68.0493 738.069 68.5707 740.064 69.16C742.104 69.7493 743.94 70.52 745.572 71.472C747.249 72.424 748.587 73.716 749.584 75.348C750.627 76.98 751.148 79.0427 751.148 81.536C751.148 84.0747 750.445 86.432 749.04 88.608C747.68 90.7387 745.572 92.4613 742.716 93.776C739.86 95.0453 736.256 95.68 731.904 95.68ZM804.929 58.28C807.831 58.28 810.392 58.8467 812.613 59.98C814.88 61.1133 816.648 62.8587 817.917 65.216C819.187 67.528 819.821 70.52 819.821 74.192V95H811.321V75.28C811.321 72.0613 810.619 69.6587 809.213 68.072C807.808 66.4853 805.791 65.692 803.161 65.692C801.303 65.692 799.648 66.1 798.197 66.916C796.792 67.732 795.681 68.9333 794.865 70.52C794.095 72.1067 793.709 74.124 793.709 76.572V95H785.209V75.28C785.209 72.0613 784.507 69.6587 783.101 68.072C781.696 66.4853 779.679 65.692 777.049 65.692C775.191 65.692 773.536 66.1 772.085 66.916C770.68 67.732 769.569 68.9333 768.753 70.52C767.983 72.1067 767.597 74.124 767.597 76.572V95H759.097V58.688H767.189V68.344L765.761 65.488C766.985 63.1307 768.753 61.34 771.065 60.116C773.423 58.892 776.097 58.28 779.089 58.28C782.489 58.28 785.436 59.1187 787.929 60.796C790.468 62.4733 792.145 65.012 792.961 68.412L789.629 67.256C790.808 64.536 792.757 62.36 795.477 60.728C798.197 59.096 801.348 58.28 804.929 58.28ZM847.818 95.476C843.783 95.476 840.247 94.6827 837.21 93.096C834.218 91.464 831.883 89.2427 830.206 86.432C828.574 83.6213 827.758 80.4253 827.758 76.844C827.758 73.2173 828.551 70.0213 830.138 67.256C831.77 64.4453 833.991 62.2467 836.802 60.66C839.658 59.0733 842.899 58.28 846.526 58.28C850.062 58.28 853.212 59.0507 855.978 60.592C858.743 62.1333 860.919 64.3093 862.506 67.12C864.092 69.9307 864.886 73.24 864.886 77.048C864.886 77.4107 864.863 77.8187 864.818 78.272C864.818 78.7253 864.795 79.156 864.75 79.564H834.49V73.92H860.262L856.93 75.688C856.975 73.6027 856.544 71.7667 855.638 70.18C854.731 68.5933 853.484 67.3467 851.898 66.44C850.356 65.5333 848.566 65.08 846.526 65.08C844.44 65.08 842.604 65.5333 841.018 66.44C839.476 67.3467 838.252 68.616 837.346 70.248C836.484 71.8347 836.054 73.716 836.054 75.892V77.252C836.054 79.428 836.552 81.3547 837.55 83.032C838.547 84.7093 839.952 86.0013 841.766 86.908C843.579 87.8147 845.664 88.268 848.022 88.268C850.062 88.268 851.898 87.9507 853.53 87.316C855.162 86.6813 856.612 85.684 857.882 84.324L862.438 89.56C860.806 91.464 858.743 92.9373 856.25 93.98C853.802 94.9773 850.991 95.476 847.818 95.476ZM873.051 95V44.544H881.551V95H873.051ZM892.707 95V44.544H901.207V95H892.707ZM923.583 95.476C920.546 95.476 917.622 95.0907 914.811 94.32C912.046 93.504 909.847 92.5293 908.215 91.396L911.479 84.936C913.111 85.9787 915.06 86.84 917.327 87.52C919.594 88.2 921.86 88.54 924.127 88.54C926.802 88.54 928.728 88.1773 929.907 87.452C931.131 86.7267 931.743 85.752 931.743 84.528C931.743 83.5307 931.335 82.7827 930.519 82.284C929.703 81.74 928.638 81.332 927.323 81.06C926.008 80.788 924.535 80.5387 922.903 80.312C921.316 80.0853 919.707 79.7907 918.075 79.428C916.488 79.02 915.038 78.4533 913.723 77.728C912.408 76.9573 911.343 75.9373 910.527 74.668C909.711 73.3987 909.303 71.7213 909.303 69.636C909.303 67.324 909.96 65.3293 911.275 63.652C912.59 61.9293 914.426 60.6147 916.783 59.708C919.186 58.756 922.019 58.28 925.283 58.28C927.731 58.28 930.202 58.552 932.695 59.096C935.188 59.64 937.251 60.4107 938.883 61.408L935.619 67.868C933.896 66.8253 932.151 66.1227 930.383 65.76C928.66 65.352 926.938 65.148 925.215 65.148C922.631 65.148 920.704 65.5333 919.435 66.304C918.211 67.0747 917.599 68.0493 917.599 69.228C917.599 70.316 918.007 71.132 918.823 71.676C919.639 72.22 920.704 72.6507 922.019 72.968C923.334 73.2853 924.784 73.5573 926.371 73.784C928.003 73.9653 929.612 74.26 931.199 74.668C932.786 75.076 934.236 75.6427 935.551 76.368C936.911 77.048 937.999 78.0227 938.815 79.292C939.631 80.5613 940.039 82.216 940.039 84.256C940.039 86.5227 939.359 88.4947 937.999 90.172C936.684 91.8493 934.803 93.164 932.355 94.116C929.907 95.0227 926.983 95.476 923.583 95.476ZM989.204 95.68C985.487 95.68 982.064 95.0907 978.936 93.912C975.854 92.688 973.156 90.988 970.844 88.812C968.532 86.5907 966.742 83.984 965.472 80.992C964.203 78 963.568 74.736 963.568 71.2C963.568 67.664 964.203 64.4 965.472 61.408C966.742 58.416 968.532 55.832 970.844 53.656C973.202 51.4347 975.944 49.7347 979.072 48.556C982.2 47.332 985.623 46.72 989.34 46.72C993.375 46.72 997.002 47.3773 1000.22 48.692C1003.48 50.0067 1006.23 51.9333 1008.45 54.472L1002.87 59.912C1001.01 58.0533 998.996 56.6933 996.82 55.832C994.69 54.9253 992.332 54.472 989.748 54.472C987.255 54.472 984.943 54.88 982.812 55.696C980.682 56.512 978.846 57.668 977.304 59.164C975.763 60.66 974.562 62.428 973.7 64.468C972.884 66.508 972.476 68.752 972.476 71.2C972.476 73.6027 972.884 75.824 973.7 77.864C974.562 79.904 975.763 81.6947 977.304 83.236C978.846 84.732 980.659 85.888 982.744 86.704C984.83 87.52 987.142 87.928 989.68 87.928C992.038 87.928 994.304 87.5653 996.48 86.84C998.702 86.0693 1000.81 84.8 1002.8 83.032L1007.84 89.628C1005.34 91.6227 1002.44 93.1413 999.132 94.184C995.868 95.1813 992.559 95.68 989.204 95.68ZM999.472 88.472V70.656H1007.84V89.628L999.472 88.472ZM1035 95.476C1031.28 95.476 1027.97 94.6827 1025.07 93.096C1022.17 91.464 1019.88 89.2427 1018.2 86.432C1016.53 83.6213 1015.69 80.4253 1015.69 76.844C1015.69 73.2173 1016.53 70.0213 1018.2 67.256C1019.88 64.4453 1022.17 62.2467 1025.07 60.66C1027.97 59.0733 1031.28 58.28 1035 58.28C1038.76 58.28 1042.09 59.0733 1045 60.66C1047.94 62.2467 1050.23 64.4227 1051.86 67.188C1053.54 69.9533 1054.38 73.172 1054.38 76.844C1054.38 80.4253 1053.54 83.6213 1051.86 86.432C1050.23 89.2427 1047.94 91.464 1045 93.096C1042.09 94.6827 1038.76 95.476 1035 95.476ZM1035 88.2C1037.08 88.2 1038.94 87.7467 1040.58 86.84C1042.21 85.9333 1043.48 84.6187 1044.38 82.896C1045.34 81.1733 1045.81 79.156 1045.81 76.844C1045.81 74.4867 1045.34 72.4693 1044.38 70.792C1043.48 69.0693 1042.21 67.7547 1040.58 66.848C1038.94 65.9413 1037.11 65.488 1035.07 65.488C1032.98 65.488 1031.12 65.9413 1029.49 66.848C1027.9 67.7547 1026.64 69.0693 1025.68 70.792C1024.73 72.4693 1024.26 74.4867 1024.26 76.844C1024.26 79.156 1024.73 81.1733 1025.68 82.896C1026.64 84.6187 1027.9 85.9333 1029.49 86.84C1031.12 87.7467 1032.96 88.2 1035 88.2ZM1078.83 95.476C1075.11 95.476 1071.8 94.6827 1068.9 93.096C1066 91.464 1063.71 89.2427 1062.03 86.432C1060.35 83.6213 1059.52 80.4253 1059.52 76.844C1059.52 73.2173 1060.35 70.0213 1062.03 67.256C1063.71 64.4453 1066 62.2467 1068.9 60.66C1071.8 59.0733 1075.11 58.28 1078.83 58.28C1082.59 58.28 1085.92 59.0733 1088.82 60.66C1091.77 62.2467 1094.06 64.4227 1095.69 67.188C1097.37 69.9533 1098.21 73.172 1098.21 76.844C1098.21 80.4253 1097.37 83.6213 1095.69 86.432C1094.06 89.2427 1091.77 91.464 1088.82 93.096C1085.92 94.6827 1082.59 95.476 1078.83 95.476ZM1078.83 88.2C1080.91 88.2 1082.77 87.7467 1084.4 86.84C1086.04 85.9333 1087.3 84.6187 1088.21 82.896C1089.16 81.1733 1089.64 79.156 1089.64 76.844C1089.64 74.4867 1089.16 72.4693 1088.21 70.792C1087.3 69.0693 1086.04 67.7547 1084.4 66.848C1082.77 65.9413 1080.94 65.488 1078.9 65.488C1076.81 65.488 1074.95 65.9413 1073.32 66.848C1071.73 67.7547 1070.46 69.0693 1069.51 70.792C1068.56 72.4693 1068.08 74.4867 1068.08 76.844C1068.08 79.156 1068.56 81.1733 1069.51 82.896C1070.46 84.6187 1071.73 85.9333 1073.32 86.84C1074.95 87.7467 1076.79 88.2 1078.83 88.2ZM1121.7 95.476C1118.21 95.476 1115.06 94.7053 1112.25 93.164C1109.49 91.5773 1107.31 89.4013 1105.72 86.636C1104.14 83.8707 1103.34 80.6067 1103.34 76.844C1103.34 73.0813 1104.14 69.8173 1105.72 67.052C1107.31 64.2867 1109.49 62.1333 1112.25 60.592C1115.06 59.0507 1118.21 58.28 1121.7 58.28C1124.74 58.28 1127.46 58.96 1129.86 60.32C1132.27 61.6347 1134.17 63.652 1135.58 66.372C1136.98 69.092 1137.68 72.5827 1137.68 76.844C1137.68 81.06 1137 84.5507 1135.64 87.316C1134.28 90.036 1132.4 92.076 1130 93.436C1127.6 94.796 1124.83 95.476 1121.7 95.476ZM1122.72 88.2C1124.76 88.2 1126.58 87.7467 1128.16 86.84C1129.8 85.9333 1131.09 84.6187 1132.04 82.896C1133.04 81.1733 1133.54 79.156 1133.54 76.844C1133.54 74.4867 1133.04 72.4693 1132.04 70.792C1131.09 69.0693 1129.8 67.7547 1128.16 66.848C1126.58 65.9413 1124.76 65.488 1122.72 65.488C1120.68 65.488 1118.85 65.9413 1117.22 66.848C1115.63 67.7547 1114.34 69.0693 1113.34 70.792C1112.39 72.4693 1111.91 74.4867 1111.91 76.844C1111.91 79.156 1112.39 81.1733 1113.34 82.896C1114.34 84.6187 1115.63 85.9333 1117.22 86.84C1118.85 87.7467 1120.68 88.2 1122.72 88.2ZM1133.74 95V86.432L1134.08 76.776L1133.4 67.12V44.544H1141.83V95H1133.74Z" fill="url(#paint1_linear_348_175)" fill-opacity="0.5"/>
</g>
<g id="Group 74" opacity="0.3">
<g id="Vector 1" filter="url(#filter1_f_348_175)">
<path d="M12.8786 228.576C47.5519 213.611 122.842 168.913 285.312 195.924C488.398 229.689 404.191 235.626 640.465 261.228C861.938 285.226 935.493 227.864 990.17 208.54C1060.51 183.68 1187.31 129.508 1294.3 176.63C1429.36 236.11 1452.81 238.223 1444.89 235.626" stroke="url(#paint2_linear_348_175)" stroke-opacity="0.3" stroke-width="15" stroke-linecap="round"/>
</g>
<g id="Vector 2" filter="url(#filter2_d_348_175)">
<path d="M0 228.632C34.9876 213.654 119.884 167.7 283.826 194.733C488.753 228.525 390.299 219.902 626.596 254.842C854.944 288.607 912.5 240.267 994 217.5C1075.5 194.733 1194.68 160 1293.04 176.645C1444.67 202.303 1462.42 247.671 1454.42 245.072" stroke="url(#paint3_linear_348_175)" stroke-width="15" stroke-linecap="round" stroke-dasharray="25 25"/>
</g>
</g>
</g>
<defs>
<filter id="filter0_f_348_175" x="269.937" y="7.50403" width="906.895" height="136.164" filterUnits="userSpaceOnUse" color-interpolation-filters="sRGB">
<feFlood flood-opacity="0" result="BackgroundImageFix"/>
<feBlend mode="normal" in="SourceGraphic" in2="BackgroundImageFix" result="shape"/>
<feGaussianBlur stdDeviation="17.5" result="effect1_foregroundBlur_348_175"/>
</filter>
<filter id="filter1_f_348_175" x="-34.6233" y="110.5" width="1528.38" height="204" filterUnits="userSpaceOnUse" color-interpolation-filters="sRGB">
<feFlood flood-opacity="0" result="BackgroundImageFix"/>
<feBlend mode="normal" in="SourceGraphic" in2="BackgroundImageFix" result="shape"/>
<feGaussianBlur stdDeviation="20" result="effect1_foregroundBlur_348_175"/>
</filter>
<filter id="filter2_d_348_175" x="-17.5019" y="164.78" width="1491" height="129.142" filterUnits="userSpaceOnUse" color-interpolation-filters="sRGB">
<feFlood flood-opacity="0" result="BackgroundImageFix"/>
<feColorMatrix in="SourceAlpha" type="matrix" values="0 0 0 0 0 0 0 0 0 0 0 0 0 0 0 0 0 0 127 0" result="hardAlpha"/>
<feOffset dy="10"/>
<feGaussianBlur stdDeviation="5"/>
<feComposite in2="hardAlpha" operator="out"/>
<feColorMatrix type="matrix" values="0 0 0 0 0 0 0 0 0 0 0 0 0 0 0 0 0 0 0.2 0"/>
<feBlend mode="normal" in2="BackgroundImageFix" result="effect1_dropShadow_348_175"/>
<feBlend mode="normal" in="SourceGraphic" in2="effect1_dropShadow_348_175" result="shape"/>
</filter>
<linearGradient id="paint0_linear_348_175" x1="320" y1="21" x2="1129" y2="21" gradientUnits="userSpaceOnUse">
<stop stop-color="#FA02FF"/>
<stop offset="1" stop-color="#26BAE3"/>
</linearGradient>
<linearGradient id="paint1_linear_348_175" x1="68" y1="71" x2="1382" y2="71" gradientUnits="userSpaceOnUse">
<stop stop-color="#FA02FF"/>
<stop offset="1" stop-color="#26BAE3"/>
</linearGradient>
<linearGradient id="paint2_linear_348_175" x1="729.646" y1="149.368" x2="729.646" y2="261.228" gradientUnits="userSpaceOnUse">
<stop stop-color="#FA02FF"/>
<stop offset="1" stop-color="#06D6DF"/>
</linearGradient>
<linearGradient id="paint3_linear_348_175" x1="723.265" y1="149.361" x2="723.265" y2="261.309" gradientUnits="userSpaceOnUse">
<stop stop-color="#FA02FF"/>
<stop offset="1" stop-color="#06D6DF"/>
</linearGradient>
</defs>
</svg>
