<svg width="80" height="80" viewBox="0 0 80 80" fill="none" xmlns="http://www.w3.org/2000/svg">
<g id="logos:telegram" clip-path="url(#clip0_348_53)">
<path id="Vector" d="M40 0C29.3938 0 19.2125 4.21688 11.7188 11.7156C4.21727 19.2174 0.00207794 29.3911 0 40C0 50.6044 4.21875 60.7856 11.7188 68.2844C19.2125 75.7831 29.3938 80 40 80C50.6062 80 60.7875 75.7831 68.2812 68.2844C75.7812 60.7856 80 50.6044 80 40C80 29.3956 75.7812 19.2144 68.2812 11.7156C60.7875 4.21688 50.6062 0 40 0Z" fill="url(#paint0_linear_348_53)"/>
<path id="Vector_2" d="M18.1062 39.5774C29.7687 34.4974 37.5437 31.148 41.4312 29.5299C52.5437 24.9093 54.85 24.1068 56.3562 24.0796C56.6875 24.0743 57.425 24.1561 57.9062 24.5452C58.3062 24.8733 58.4187 25.3171 58.475 25.6286C58.525 25.9399 58.5937 26.6493 58.5375 27.203C57.9375 33.528 55.3312 48.8768 54.0062 55.9611C53.45 58.9586 52.3437 59.9636 51.275 60.0618C48.95 60.2755 47.1875 58.5268 44.9375 57.0524C41.4187 54.7443 39.4312 53.308 36.0125 51.0561C32.0625 48.4536 34.625 47.023 36.875 44.6855C37.4625 44.0736 47.7 34.7643 47.8937 33.9199C47.9187 33.8143 47.9437 33.4205 47.7062 33.213C47.475 33.0049 47.1312 33.0761 46.8812 33.1324C46.525 33.2124 40.9062 36.9299 30.0062 44.2843C28.4125 45.3805 26.9687 45.9149 25.6687 45.8868C24.2437 45.8561 21.4937 45.0793 19.45 44.4155C16.95 43.6011 14.9562 43.1705 15.1312 41.7874C15.2187 41.0674 16.2125 40.3305 18.1062 39.5774V39.5774Z" fill="#1E1F2A"/>
</g>
<defs>
<linearGradient id="paint0_linear_348_53" x1="40" y1="0" x2="40" y2="80" gradientUnits="userSpaceOnUse">
<stop stop-color="#2AABEE"/>
<stop offset="1" stop-color="#229ED9"/>
</linearGradient>
<clipPath id="clip0_348_53">
<rect width="80" height="80" fill="white"/>
</clipPath>
</defs>
</svg>
